%TF.GenerationSoftware,KiCad,Pcbnew,5.1.9+dfsg1-1+deb11u1*%
%TF.CreationDate,2024-10-31T16:52:42-07:00*%
%TF.ProjectId,8051,38303531-2e6b-4696-9361-645f70636258,rev?*%
%TF.SameCoordinates,Original*%
%TF.FileFunction,Soldermask,Top*%
%TF.FilePolarity,Negative*%
%FSLAX46Y46*%
G04 Gerber Fmt 4.6, Leading zero omitted, Abs format (unit mm)*
G04 Created by KiCad (PCBNEW 5.1.9+dfsg1-1+deb11u1) date 2024-10-31 16:52:42*
%MOMM*%
%LPD*%
G01*
G04 APERTURE LIST*
%ADD10R,1.700000X1.700000*%
%ADD11C,3.200000*%
%ADD12O,1.600000X1.600000*%
%ADD13R,1.600000X1.600000*%
%ADD14O,1.700000X1.700000*%
%ADD15C,1.800000*%
%ADD16R,1.800000X1.800000*%
%ADD17C,1.500000*%
%ADD18R,1.950000X0.600000*%
%ADD19R,0.700000X1.925000*%
%ADD20R,1.925000X0.700000*%
%ADD21C,2.000000*%
G04 APERTURE END LIST*
D10*
%TO.C,J5*%
X124000000Y-120300000D03*
%TD*%
D11*
%TO.C,H1*%
X108700000Y-64400000D03*
%TD*%
D12*
%TO.C,U5*%
X126490000Y-102500000D03*
X111250000Y-135520000D03*
X126490000Y-105040000D03*
X111250000Y-132980000D03*
X126490000Y-107580000D03*
X111250000Y-130440000D03*
X126490000Y-110120000D03*
X111250000Y-127900000D03*
X126490000Y-112660000D03*
X111250000Y-125360000D03*
X126490000Y-115200000D03*
X111250000Y-122820000D03*
X126490000Y-117740000D03*
X111250000Y-120280000D03*
X126490000Y-120280000D03*
X111250000Y-117740000D03*
X126490000Y-122820000D03*
X111250000Y-115200000D03*
X126490000Y-125360000D03*
X111250000Y-112660000D03*
X126490000Y-127900000D03*
X111250000Y-110120000D03*
X126490000Y-130440000D03*
X111250000Y-107580000D03*
X126490000Y-132980000D03*
X111250000Y-105040000D03*
X126490000Y-135520000D03*
D13*
X111250000Y-102500000D03*
%TD*%
D14*
%TO.C,J4*%
X124333000Y-105156000D03*
D10*
X124333000Y-102616000D03*
%TD*%
D14*
%TO.C,J3*%
X113284000Y-99949000D03*
D10*
X113284000Y-102489000D03*
%TD*%
%TO.C,D4*%
G36*
G01*
X98873000Y-65462999D02*
X98873000Y-66363001D01*
G75*
G02*
X98623001Y-66613000I-249999J0D01*
G01*
X97972999Y-66613000D01*
G75*
G02*
X97723000Y-66363001I0J249999D01*
G01*
X97723000Y-65462999D01*
G75*
G02*
X97972999Y-65213000I249999J0D01*
G01*
X98623001Y-65213000D01*
G75*
G02*
X98873000Y-65462999I0J-249999D01*
G01*
G37*
G36*
G01*
X100923000Y-65462999D02*
X100923000Y-66363001D01*
G75*
G02*
X100673001Y-66613000I-249999J0D01*
G01*
X100022999Y-66613000D01*
G75*
G02*
X99773000Y-66363001I0J249999D01*
G01*
X99773000Y-65462999D01*
G75*
G02*
X100022999Y-65213000I249999J0D01*
G01*
X100673001Y-65213000D01*
G75*
G02*
X100923000Y-65462999I0J-249999D01*
G01*
G37*
%TD*%
%TO.C,D3*%
G36*
G01*
X98855000Y-62795999D02*
X98855000Y-63696001D01*
G75*
G02*
X98605001Y-63946000I-249999J0D01*
G01*
X97954999Y-63946000D01*
G75*
G02*
X97705000Y-63696001I0J249999D01*
G01*
X97705000Y-62795999D01*
G75*
G02*
X97954999Y-62546000I249999J0D01*
G01*
X98605001Y-62546000D01*
G75*
G02*
X98855000Y-62795999I0J-249999D01*
G01*
G37*
G36*
G01*
X100905000Y-62795999D02*
X100905000Y-63696001D01*
G75*
G02*
X100655001Y-63946000I-249999J0D01*
G01*
X100004999Y-63946000D01*
G75*
G02*
X99755000Y-63696001I0J249999D01*
G01*
X99755000Y-62795999D01*
G75*
G02*
X100004999Y-62546000I249999J0D01*
G01*
X100655001Y-62546000D01*
G75*
G02*
X100905000Y-62795999I0J-249999D01*
G01*
G37*
%TD*%
%TO.C,R5*%
G36*
G01*
X102893600Y-112808599D02*
X102893600Y-113708601D01*
G75*
G02*
X102643601Y-113958600I-249999J0D01*
G01*
X101993599Y-113958600D01*
G75*
G02*
X101743600Y-113708601I0J249999D01*
G01*
X101743600Y-112808599D01*
G75*
G02*
X101993599Y-112558600I249999J0D01*
G01*
X102643601Y-112558600D01*
G75*
G02*
X102893600Y-112808599I0J-249999D01*
G01*
G37*
G36*
G01*
X104943600Y-112808599D02*
X104943600Y-113708601D01*
G75*
G02*
X104693601Y-113958600I-249999J0D01*
G01*
X104043599Y-113958600D01*
G75*
G02*
X103793600Y-113708601I0J249999D01*
G01*
X103793600Y-112808599D01*
G75*
G02*
X104043599Y-112558600I249999J0D01*
G01*
X104693601Y-112558600D01*
G75*
G02*
X104943600Y-112808599I0J-249999D01*
G01*
G37*
%TD*%
D15*
%TO.C,D2*%
X98933000Y-117094000D03*
X101092000Y-117094000D03*
X103251000Y-117094000D03*
D16*
X105410000Y-117094000D03*
%TD*%
%TO.C,D1*%
G36*
G01*
X116925000Y-63950001D02*
X116925000Y-63049999D01*
G75*
G02*
X117174999Y-62800000I249999J0D01*
G01*
X117825001Y-62800000D01*
G75*
G02*
X118075000Y-63049999I0J-249999D01*
G01*
X118075000Y-63950001D01*
G75*
G02*
X117825001Y-64200000I-249999J0D01*
G01*
X117174999Y-64200000D01*
G75*
G02*
X116925000Y-63950001I0J249999D01*
G01*
G37*
G36*
G01*
X114875000Y-63950001D02*
X114875000Y-63049999D01*
G75*
G02*
X115124999Y-62800000I249999J0D01*
G01*
X115775001Y-62800000D01*
G75*
G02*
X116025000Y-63049999I0J-249999D01*
G01*
X116025000Y-63950001D01*
G75*
G02*
X115775001Y-64200000I-249999J0D01*
G01*
X115124999Y-64200000D01*
G75*
G02*
X114875000Y-63950001I0J249999D01*
G01*
G37*
%TD*%
%TO.C,C4*%
G36*
G01*
X101347300Y-94955200D02*
X101347300Y-96205200D01*
G75*
G02*
X101097300Y-96455200I-250000J0D01*
G01*
X100172300Y-96455200D01*
G75*
G02*
X99922300Y-96205200I0J250000D01*
G01*
X99922300Y-94955200D01*
G75*
G02*
X100172300Y-94705200I250000J0D01*
G01*
X101097300Y-94705200D01*
G75*
G02*
X101347300Y-94955200I0J-250000D01*
G01*
G37*
G36*
G01*
X104322300Y-94955200D02*
X104322300Y-96205200D01*
G75*
G02*
X104072300Y-96455200I-250000J0D01*
G01*
X103147300Y-96455200D01*
G75*
G02*
X102897300Y-96205200I0J250000D01*
G01*
X102897300Y-94955200D01*
G75*
G02*
X103147300Y-94705200I250000J0D01*
G01*
X104072300Y-94705200D01*
G75*
G02*
X104322300Y-94955200I0J-250000D01*
G01*
G37*
%TD*%
D14*
%TO.C,J2*%
X93500000Y-136990000D03*
X90960000Y-136990000D03*
X93500000Y-134450000D03*
X90960000Y-134450000D03*
X93500000Y-131910000D03*
X90960000Y-131910000D03*
X93500000Y-129370000D03*
X90960000Y-129370000D03*
X93500000Y-126830000D03*
X90960000Y-126830000D03*
X93500000Y-124290000D03*
X90960000Y-124290000D03*
X93500000Y-121750000D03*
X90960000Y-121750000D03*
X93500000Y-119210000D03*
X90960000Y-119210000D03*
X93500000Y-116670000D03*
X90960000Y-116670000D03*
X93500000Y-114130000D03*
X90960000Y-114130000D03*
X93500000Y-111590000D03*
X90960000Y-111590000D03*
X93500000Y-109050000D03*
X90960000Y-109050000D03*
X93500000Y-106510000D03*
X90960000Y-106510000D03*
X93500000Y-103970000D03*
X90960000Y-103970000D03*
X93500000Y-101430000D03*
X90960000Y-101430000D03*
X93500000Y-98890000D03*
X90960000Y-98890000D03*
X93500000Y-96350000D03*
X90960000Y-96350000D03*
X93500000Y-93810000D03*
X90960000Y-93810000D03*
X93500000Y-91270000D03*
X90960000Y-91270000D03*
X93500000Y-88730000D03*
X90960000Y-88730000D03*
X93500000Y-86190000D03*
X90960000Y-86190000D03*
X93500000Y-83650000D03*
X90960000Y-83650000D03*
X93500000Y-81110000D03*
X90960000Y-81110000D03*
X93500000Y-78570000D03*
X90960000Y-78570000D03*
X93500000Y-76030000D03*
X90960000Y-76030000D03*
X93500000Y-73490000D03*
X90960000Y-73490000D03*
X93500000Y-70950000D03*
X90960000Y-70950000D03*
X93500000Y-68410000D03*
X90960000Y-68410000D03*
X93500000Y-65870000D03*
X90960000Y-65870000D03*
X93500000Y-63330000D03*
D10*
X90960000Y-63330000D03*
%TD*%
D17*
%TO.C,Y1*%
X103250000Y-83130000D03*
X103250000Y-78250000D03*
%TD*%
D18*
%TO.C,U3*%
X106700000Y-97785000D03*
X106700000Y-99055000D03*
X106700000Y-100325000D03*
X106700000Y-101595000D03*
X106700000Y-102865000D03*
X106700000Y-104135000D03*
X106700000Y-105405000D03*
X106700000Y-106675000D03*
X106700000Y-107945000D03*
X106700000Y-109215000D03*
X97300000Y-109215000D03*
X97300000Y-107945000D03*
X97300000Y-106675000D03*
X97300000Y-105405000D03*
X97300000Y-104135000D03*
X97300000Y-102865000D03*
X97300000Y-101595000D03*
X97300000Y-100325000D03*
X97300000Y-99055000D03*
X97300000Y-97785000D03*
%TD*%
%TO.C,U2*%
X97600000Y-135965000D03*
X97600000Y-134695000D03*
X97600000Y-133425000D03*
X97600000Y-132155000D03*
X97600000Y-130885000D03*
X97600000Y-129615000D03*
X97600000Y-128345000D03*
X97600000Y-127075000D03*
X97600000Y-125805000D03*
X97600000Y-124535000D03*
X107000000Y-124535000D03*
X107000000Y-125805000D03*
X107000000Y-127075000D03*
X107000000Y-128345000D03*
X107000000Y-129615000D03*
X107000000Y-130885000D03*
X107000000Y-132155000D03*
X107000000Y-133425000D03*
X107000000Y-134695000D03*
X107000000Y-135965000D03*
%TD*%
D19*
%TO.C,U1*%
X122350000Y-91802500D03*
X121080000Y-91802500D03*
X119810000Y-91802500D03*
X118540000Y-91802500D03*
X117270000Y-91802500D03*
X116000000Y-91802500D03*
X114730000Y-91802500D03*
X113460000Y-91802500D03*
X112190000Y-91802500D03*
X110920000Y-91802500D03*
X109650000Y-91802500D03*
D20*
X108137500Y-90290000D03*
X108137500Y-89020000D03*
X108137500Y-87750000D03*
X108137500Y-86480000D03*
X108137500Y-85210000D03*
X108137500Y-83940000D03*
X108137500Y-82670000D03*
X108137500Y-81400000D03*
X108137500Y-80130000D03*
X108137500Y-78860000D03*
X108137500Y-77590000D03*
D19*
X109650000Y-76077500D03*
X110920000Y-76077500D03*
X112190000Y-76077500D03*
X113460000Y-76077500D03*
X114730000Y-76077500D03*
X116000000Y-76077500D03*
X117270000Y-76077500D03*
X118540000Y-76077500D03*
X119810000Y-76077500D03*
X121080000Y-76077500D03*
X122350000Y-76077500D03*
D20*
X123862500Y-90290000D03*
X123862500Y-89020000D03*
X123862500Y-87750000D03*
X123862500Y-86480000D03*
X123862500Y-85210000D03*
X123862500Y-77590000D03*
X123862500Y-78860000D03*
X123862500Y-80130000D03*
X123862500Y-81400000D03*
X123862500Y-82670000D03*
X123862500Y-83940000D03*
%TD*%
D21*
%TO.C,SW1*%
X126500000Y-63500000D03*
X126500000Y-68000000D03*
X120000000Y-63500000D03*
X120000000Y-68000000D03*
%TD*%
D14*
%TO.C,J1*%
X116840000Y-84582000D03*
D10*
X114300000Y-84582000D03*
%TD*%
%TO.C,C2*%
G36*
G01*
X99637001Y-82345000D02*
X98736999Y-82345000D01*
G75*
G02*
X98487000Y-82095001I0J249999D01*
G01*
X98487000Y-81444999D01*
G75*
G02*
X98736999Y-81195000I249999J0D01*
G01*
X99637001Y-81195000D01*
G75*
G02*
X99887000Y-81444999I0J-249999D01*
G01*
X99887000Y-82095001D01*
G75*
G02*
X99637001Y-82345000I-249999J0D01*
G01*
G37*
G36*
G01*
X99637001Y-84395000D02*
X98736999Y-84395000D01*
G75*
G02*
X98487000Y-84145001I0J249999D01*
G01*
X98487000Y-83494999D01*
G75*
G02*
X98736999Y-83245000I249999J0D01*
G01*
X99637001Y-83245000D01*
G75*
G02*
X99887000Y-83494999I0J-249999D01*
G01*
X99887000Y-84145001D01*
G75*
G02*
X99637001Y-84395000I-249999J0D01*
G01*
G37*
%TD*%
%TO.C,C1*%
G36*
G01*
X98736999Y-79054000D02*
X99637001Y-79054000D01*
G75*
G02*
X99887000Y-79303999I0J-249999D01*
G01*
X99887000Y-79954001D01*
G75*
G02*
X99637001Y-80204000I-249999J0D01*
G01*
X98736999Y-80204000D01*
G75*
G02*
X98487000Y-79954001I0J249999D01*
G01*
X98487000Y-79303999D01*
G75*
G02*
X98736999Y-79054000I249999J0D01*
G01*
G37*
G36*
G01*
X98736999Y-77004000D02*
X99637001Y-77004000D01*
G75*
G02*
X99887000Y-77253999I0J-249999D01*
G01*
X99887000Y-77904001D01*
G75*
G02*
X99637001Y-78154000I-249999J0D01*
G01*
X98736999Y-78154000D01*
G75*
G02*
X98487000Y-77904001I0J249999D01*
G01*
X98487000Y-77253999D01*
G75*
G02*
X98736999Y-77004000I249999J0D01*
G01*
G37*
%TD*%
M02*
