M48
; DRILL file {KiCad 5.1.9+dfsg1-1+deb11u1} date Thu Oct 31 16:52:08 2024
; FORMAT={-:-/ absolute / metric / decimal}
; #@! TF.CreationDate,2024-10-31T16:52:08-07:00
; #@! TF.GenerationSoftware,Kicad,Pcbnew,5.1.9+dfsg1-1+deb11u1
FMAT,2
METRIC
T1C0.400
T2C0.800
T3C0.900
T4C1.000
T5C1.100
T6C3.200
%
G90
G05
T1
X96.825Y-84.607
X96.825Y-87.554
X98.298Y-63.246
X98.298Y-65.913
X98.958Y-100.33
X99.695Y-135.585
X101.651Y-71.958
X102.718Y-106.705
X102.743Y-85.979
X102.819Y-104.343
X102.87Y-102.464
X103.734Y-134.722
X104.394Y-87.808
X104.419Y-125.806
X104.953Y-101.6
X104.999Y-100.325
X105.054Y-106.655
X105.08Y-105.41
X105.131Y-133.401
X105.155Y-134.695
X105.562Y-87.757
X105.842Y-123.038
X109.017Y-135.179
X109.118Y-127.889
X109.322Y-121.564
X109.474Y-87.757
X109.479Y-86.507
X109.499Y-89.002
X110.82Y-86.512
X110.871Y-84.633
X111.989Y-86.512
X112.154Y-83.757
X113.36Y-69.291
X113.411Y-87.833
X113.436Y-90.449
X114.122Y-120.117
X114.783Y-107.188
X115.316Y-120.117
X115.443Y-63.5
X115.926Y-93.497
X116.103Y-127.279
X116.256Y-94.539
X116.256Y-96.368
X116.789Y-119.126
X117.018Y-131.75
X117.297Y-108.941
X117.551Y-94.513
X117.856Y-116.688
X118.085Y-106.248
X118.11Y-81.204
X118.142Y-78.86
X118.643Y-90.068
X118.821Y-109.144
X119.456Y-116.713
X119.659Y-103.861
X119.761Y-74.041
X119.863Y-90.043
X120.294Y-131.75
X120.599Y-80.162
X120.65Y-77.927
X120.65Y-82.042
X121.031Y-74.041
X121.056Y-90.043
X121.08Y-93.673
X121.78Y-96.406
X122.047Y-127.279
X122.174Y-90.068
X122.301Y-74.041
X123.596Y-135.915
X124.231Y-96.393
X128.0Y-84.42
T2
X103.25Y-78.25
X103.25Y-83.13
X111.25Y-102.5
X111.25Y-105.04
X111.25Y-107.58
X111.25Y-110.12
X111.25Y-112.66
X111.25Y-115.2
X111.25Y-117.74
X111.25Y-120.28
X111.25Y-122.82
X111.25Y-125.36
X111.25Y-127.9
X111.25Y-130.44
X111.25Y-132.98
X111.25Y-135.52
X126.49Y-102.5
X126.49Y-105.04
X126.49Y-107.58
X126.49Y-110.12
X126.49Y-112.66
X126.49Y-115.2
X126.49Y-117.74
X126.49Y-120.28
X126.49Y-122.82
X126.49Y-125.36
X126.49Y-127.9
X126.49Y-130.44
X126.49Y-132.98
X126.49Y-135.52
T3
X98.933Y-117.094
X101.092Y-117.094
X103.251Y-117.094
X105.41Y-117.094
T4
X90.96Y-63.33
X90.96Y-65.87
X90.96Y-68.41
X90.96Y-70.95
X90.96Y-73.49
X90.96Y-76.03
X90.96Y-78.57
X90.96Y-81.11
X90.96Y-83.65
X90.96Y-86.19
X90.96Y-88.73
X90.96Y-91.27
X90.96Y-93.81
X90.96Y-96.35
X90.96Y-98.89
X90.96Y-101.43
X90.96Y-103.97
X90.96Y-106.51
X90.96Y-109.05
X90.96Y-111.59
X90.96Y-114.13
X90.96Y-116.67
X90.96Y-119.21
X90.96Y-121.75
X90.96Y-124.29
X90.96Y-126.83
X90.96Y-129.37
X90.96Y-131.91
X90.96Y-134.45
X90.96Y-136.99
X93.5Y-63.33
X93.5Y-65.87
X93.5Y-68.41
X93.5Y-70.95
X93.5Y-73.49
X93.5Y-76.03
X93.5Y-78.57
X93.5Y-81.11
X93.5Y-83.65
X93.5Y-86.19
X93.5Y-88.73
X93.5Y-91.27
X93.5Y-93.81
X93.5Y-96.35
X93.5Y-98.89
X93.5Y-101.43
X93.5Y-103.97
X93.5Y-106.51
X93.5Y-109.05
X93.5Y-111.59
X93.5Y-114.13
X93.5Y-116.67
X93.5Y-119.21
X93.5Y-121.75
X93.5Y-124.29
X93.5Y-126.83
X93.5Y-129.37
X93.5Y-131.91
X93.5Y-134.45
X93.5Y-136.99
X113.284Y-99.949
X113.284Y-102.489
X114.3Y-84.582
X116.84Y-84.582
X124.0Y-120.3
X124.333Y-102.616
X124.333Y-105.156
T5
X120.0Y-63.5
X120.0Y-68.0
X126.5Y-63.5
X126.5Y-68.0
T6
X108.7Y-64.4
T0
M30
