%TF.GenerationSoftware,KiCad,Pcbnew,5.1.9+dfsg1-1+deb11u1*%
%TF.CreationDate,2024-10-31T16:52:42-07:00*%
%TF.ProjectId,8051,38303531-2e6b-4696-9361-645f70636258,rev?*%
%TF.SameCoordinates,Original*%
%TF.FileFunction,Legend,Top*%
%TF.FilePolarity,Positive*%
%FSLAX46Y46*%
G04 Gerber Fmt 4.6, Leading zero omitted, Abs format (unit mm)*
G04 Created by KiCad (PCBNEW 5.1.9+dfsg1-1+deb11u1) date 2024-10-31 16:52:42*
%MOMM*%
%LPD*%
G01*
G04 APERTURE LIST*
%ADD10C,0.120000*%
%ADD11C,0.190500*%
%ADD12C,0.150000*%
%ADD13C,0.889000*%
%ADD14C,0.100000*%
G04 APERTURE END LIST*
D10*
X118200000Y-85900000D02*
X120800000Y-86300000D01*
X118170000Y-83252000D02*
X120700000Y-82700000D01*
X114600000Y-87100000D02*
X114200000Y-87200000D01*
X114600000Y-87100000D02*
X114700000Y-87400000D01*
X115570000Y-85912000D02*
X114600000Y-87100000D01*
X114600000Y-82300000D02*
X114400000Y-82200000D01*
X114600000Y-82300000D02*
X114600000Y-82000000D01*
X115570000Y-83252000D02*
X114600000Y-82300000D01*
D11*
X104845571Y-136044714D02*
X104773000Y-136008428D01*
X104736714Y-135972142D01*
X104700428Y-135899571D01*
X104700428Y-135681857D01*
X104736714Y-135609285D01*
X104773000Y-135573000D01*
X104845571Y-135536714D01*
X104954428Y-135536714D01*
X105027000Y-135573000D01*
X105063285Y-135609285D01*
X105099571Y-135681857D01*
X105099571Y-135899571D01*
X105063285Y-135972142D01*
X105027000Y-136008428D01*
X104954428Y-136044714D01*
X104845571Y-136044714D01*
X99045571Y-98144714D02*
X98973000Y-98108428D01*
X98936714Y-98072142D01*
X98900428Y-97999571D01*
X98900428Y-97781857D01*
X98936714Y-97709285D01*
X98973000Y-97673000D01*
X99045571Y-97636714D01*
X99154428Y-97636714D01*
X99227000Y-97673000D01*
X99263285Y-97709285D01*
X99299571Y-97781857D01*
X99299571Y-97999571D01*
X99263285Y-98072142D01*
X99227000Y-98108428D01*
X99154428Y-98144714D01*
X99045571Y-98144714D01*
D12*
X98001628Y-111063114D02*
X97239723Y-111348828D01*
X98001628Y-111634542D01*
X98477819Y-111348828D02*
X99239723Y-111348828D01*
X100668295Y-110729780D02*
X100858771Y-110729780D01*
X100954009Y-110777400D01*
X101049247Y-110872638D01*
X101096866Y-111063114D01*
X101096866Y-111396447D01*
X101049247Y-111586923D01*
X100954009Y-111682161D01*
X100858771Y-111729780D01*
X100668295Y-111729780D01*
X100573057Y-111682161D01*
X100477819Y-111586923D01*
X100430200Y-111396447D01*
X100430200Y-111063114D01*
X100477819Y-110872638D01*
X100573057Y-110777400D01*
X100668295Y-110729780D01*
X101525438Y-110729780D02*
X101525438Y-111539304D01*
X101573057Y-111634542D01*
X101620676Y-111682161D01*
X101715914Y-111729780D01*
X101906390Y-111729780D01*
X102001628Y-111682161D01*
X102049247Y-111634542D01*
X102096866Y-111539304D01*
X102096866Y-110729780D01*
X102430200Y-110729780D02*
X103001628Y-110729780D01*
X102715914Y-111729780D02*
X102715914Y-110729780D01*
X103334961Y-111729780D02*
X103334961Y-110729780D01*
X103715914Y-110729780D01*
X103811152Y-110777400D01*
X103858771Y-110825019D01*
X103906390Y-110920257D01*
X103906390Y-111063114D01*
X103858771Y-111158352D01*
X103811152Y-111205971D01*
X103715914Y-111253590D01*
X103334961Y-111253590D01*
X104334961Y-110729780D02*
X104334961Y-111539304D01*
X104382580Y-111634542D01*
X104430200Y-111682161D01*
X104525438Y-111729780D01*
X104715914Y-111729780D01*
X104811152Y-111682161D01*
X104858771Y-111634542D01*
X104906390Y-111539304D01*
X104906390Y-110729780D01*
X105239723Y-110729780D02*
X105811152Y-110729780D01*
X105525438Y-111729780D02*
X105525438Y-110729780D01*
X106049247Y-110729780D02*
X106715914Y-110729780D01*
X106049247Y-111729780D01*
X106715914Y-111729780D01*
X98058695Y-121477114D02*
X97296790Y-121762828D01*
X98058695Y-122048542D01*
X98534885Y-121762828D02*
X99296790Y-121762828D01*
X100534885Y-122143780D02*
X100534885Y-121143780D01*
X101011076Y-122143780D02*
X101011076Y-121143780D01*
X101582504Y-122143780D01*
X101582504Y-121143780D01*
X102058695Y-122143780D02*
X102058695Y-121143780D01*
X102439647Y-121143780D01*
X102534885Y-121191400D01*
X102582504Y-121239019D01*
X102630123Y-121334257D01*
X102630123Y-121477114D01*
X102582504Y-121572352D01*
X102534885Y-121619971D01*
X102439647Y-121667590D01*
X102058695Y-121667590D01*
X103058695Y-121143780D02*
X103058695Y-121953304D01*
X103106314Y-122048542D01*
X103153933Y-122096161D01*
X103249171Y-122143780D01*
X103439647Y-122143780D01*
X103534885Y-122096161D01*
X103582504Y-122048542D01*
X103630123Y-121953304D01*
X103630123Y-121143780D01*
X103963457Y-121143780D02*
X104534885Y-121143780D01*
X104249171Y-122143780D02*
X104249171Y-121143780D01*
X104772980Y-121143780D02*
X105439647Y-121143780D01*
X104772980Y-122143780D01*
X105439647Y-122143780D01*
X119108980Y-130071095D02*
X119108980Y-130547285D01*
X118108980Y-130547285D01*
X118823266Y-129785380D02*
X118823266Y-129309190D01*
X119108980Y-129880619D02*
X118108980Y-129547285D01*
X119108980Y-129213952D01*
X119108980Y-128309190D02*
X118632790Y-128642523D01*
X119108980Y-128880619D02*
X118108980Y-128880619D01*
X118108980Y-128499666D01*
X118156600Y-128404428D01*
X118204219Y-128356809D01*
X118299457Y-128309190D01*
X118442314Y-128309190D01*
X118537552Y-128356809D01*
X118585171Y-128404428D01*
X118632790Y-128499666D01*
X118632790Y-128880619D01*
X118156600Y-127356809D02*
X118108980Y-127452047D01*
X118108980Y-127594904D01*
X118156600Y-127737761D01*
X118251838Y-127833000D01*
X118347076Y-127880619D01*
X118537552Y-127928238D01*
X118680409Y-127928238D01*
X118870885Y-127880619D01*
X118966123Y-127833000D01*
X119061361Y-127737761D01*
X119108980Y-127594904D01*
X119108980Y-127499666D01*
X119061361Y-127356809D01*
X119013742Y-127309190D01*
X118680409Y-127309190D01*
X118680409Y-127499666D01*
X118585171Y-126880619D02*
X118585171Y-126547285D01*
X119108980Y-126404428D02*
X119108980Y-126880619D01*
X118108980Y-126880619D01*
X118108980Y-126404428D01*
X119108980Y-125213952D02*
X118108980Y-125213952D01*
X118823266Y-124880619D01*
X118108980Y-124547285D01*
X119108980Y-124547285D01*
X118585171Y-124071095D02*
X118585171Y-123737761D01*
X119108980Y-123594904D02*
X119108980Y-124071095D01*
X118108980Y-124071095D01*
X118108980Y-123594904D01*
X119108980Y-123166333D02*
X118108980Y-123166333D01*
X118823266Y-122833000D01*
X118108980Y-122499666D01*
X119108980Y-122499666D01*
X118108980Y-121833000D02*
X118108980Y-121642523D01*
X118156600Y-121547285D01*
X118251838Y-121452047D01*
X118442314Y-121404428D01*
X118775647Y-121404428D01*
X118966123Y-121452047D01*
X119061361Y-121547285D01*
X119108980Y-121642523D01*
X119108980Y-121833000D01*
X119061361Y-121928238D01*
X118966123Y-122023476D01*
X118775647Y-122071095D01*
X118442314Y-122071095D01*
X118251838Y-122023476D01*
X118156600Y-121928238D01*
X118108980Y-121833000D01*
X119108980Y-120404428D02*
X118632790Y-120737761D01*
X119108980Y-120975857D02*
X118108980Y-120975857D01*
X118108980Y-120594904D01*
X118156600Y-120499666D01*
X118204219Y-120452047D01*
X118299457Y-120404428D01*
X118442314Y-120404428D01*
X118537552Y-120452047D01*
X118585171Y-120499666D01*
X118632790Y-120594904D01*
X118632790Y-120975857D01*
X119108980Y-119975857D02*
X118108980Y-119975857D01*
X118585171Y-119499666D02*
X118585171Y-119166333D01*
X119108980Y-119023476D02*
X119108980Y-119499666D01*
X118108980Y-119499666D01*
X118108980Y-119023476D01*
X119061361Y-118642523D02*
X119108980Y-118499666D01*
X119108980Y-118261571D01*
X119061361Y-118166333D01*
X119013742Y-118118714D01*
X118918504Y-118071095D01*
X118823266Y-118071095D01*
X118728028Y-118118714D01*
X118680409Y-118166333D01*
X118632790Y-118261571D01*
X118585171Y-118452047D01*
X118537552Y-118547285D01*
X118489933Y-118594904D01*
X118394695Y-118642523D01*
X118299457Y-118642523D01*
X118204219Y-118594904D01*
X118156600Y-118547285D01*
X118108980Y-118452047D01*
X118108980Y-118213952D01*
X118156600Y-118071095D01*
X119806600Y-126380619D02*
X119758980Y-126475857D01*
X119758980Y-126618714D01*
X119806600Y-126761571D01*
X119901838Y-126856809D01*
X119997076Y-126904428D01*
X120187552Y-126952047D01*
X120330409Y-126952047D01*
X120520885Y-126904428D01*
X120616123Y-126856809D01*
X120711361Y-126761571D01*
X120758980Y-126618714D01*
X120758980Y-126523476D01*
X120711361Y-126380619D01*
X120663742Y-126333000D01*
X120330409Y-126333000D01*
X120330409Y-126523476D01*
X119758980Y-125713952D02*
X119758980Y-125523476D01*
X119806600Y-125428238D01*
X119901838Y-125333000D01*
X120092314Y-125285380D01*
X120425647Y-125285380D01*
X120616123Y-125333000D01*
X120711361Y-125428238D01*
X120758980Y-125523476D01*
X120758980Y-125713952D01*
X120711361Y-125809190D01*
X120616123Y-125904428D01*
X120425647Y-125952047D01*
X120092314Y-125952047D01*
X119901838Y-125904428D01*
X119806600Y-125809190D01*
X119758980Y-125713952D01*
X120758980Y-124094904D02*
X119758980Y-124094904D01*
X120235171Y-124094904D02*
X120235171Y-123523476D01*
X120758980Y-123523476D02*
X119758980Y-123523476D01*
X120235171Y-123047285D02*
X120235171Y-122713952D01*
X120758980Y-122571095D02*
X120758980Y-123047285D01*
X119758980Y-123047285D01*
X119758980Y-122571095D01*
X120758980Y-121571095D02*
X120282790Y-121904428D01*
X120758980Y-122142523D02*
X119758980Y-122142523D01*
X119758980Y-121761571D01*
X119806600Y-121666333D01*
X119854219Y-121618714D01*
X119949457Y-121571095D01*
X120092314Y-121571095D01*
X120187552Y-121618714D01*
X120235171Y-121666333D01*
X120282790Y-121761571D01*
X120282790Y-122142523D01*
X120235171Y-121142523D02*
X120235171Y-120809190D01*
X120758980Y-120666333D02*
X120758980Y-121142523D01*
X119758980Y-121142523D01*
X119758980Y-120666333D01*
X120663742Y-120237761D02*
X120711361Y-120190142D01*
X120758980Y-120237761D01*
X120711361Y-120285380D01*
X120663742Y-120237761D01*
X120758980Y-120237761D01*
X112367468Y-72210652D02*
X112906216Y-72749400D01*
X113242933Y-73086118D02*
X113781681Y-73624866D01*
X113916368Y-74163614D02*
X114657147Y-74500331D01*
X114320429Y-73759553D01*
X95077019Y-136429809D02*
X96077019Y-136429809D01*
X96077019Y-137096476D02*
X96077019Y-137191714D01*
X96029400Y-137286952D01*
X95981780Y-137334571D01*
X95886542Y-137382190D01*
X95696066Y-137429809D01*
X95457971Y-137429809D01*
X95267495Y-137382190D01*
X95172257Y-137334571D01*
X95124638Y-137286952D01*
X95077019Y-137191714D01*
X95077019Y-137096476D01*
X95124638Y-137001238D01*
X95172257Y-136953619D01*
X95267495Y-136906000D01*
X95457971Y-136858380D01*
X95696066Y-136858380D01*
X95886542Y-136906000D01*
X95981780Y-136953619D01*
X96029400Y-137001238D01*
X96077019Y-137096476D01*
X95102419Y-133991409D02*
X96102419Y-133991409D01*
X95102419Y-134991409D02*
X95102419Y-134419980D01*
X95102419Y-134705695D02*
X96102419Y-134705695D01*
X95959561Y-134610457D01*
X95864323Y-134515219D01*
X95816704Y-134419980D01*
X95077019Y-131426009D02*
X96077019Y-131426009D01*
X95981780Y-131854580D02*
X96029400Y-131902200D01*
X96077019Y-131997438D01*
X96077019Y-132235533D01*
X96029400Y-132330771D01*
X95981780Y-132378390D01*
X95886542Y-132426009D01*
X95791304Y-132426009D01*
X95648447Y-132378390D01*
X95077019Y-131806961D01*
X95077019Y-132426009D01*
X95051619Y-128860609D02*
X96051619Y-128860609D01*
X96051619Y-129241561D02*
X96051619Y-129860609D01*
X95670666Y-129527276D01*
X95670666Y-129670133D01*
X95623047Y-129765371D01*
X95575428Y-129812990D01*
X95480190Y-129860609D01*
X95242095Y-129860609D01*
X95146857Y-129812990D01*
X95099238Y-129765371D01*
X95051619Y-129670133D01*
X95051619Y-129384419D01*
X95099238Y-129289180D01*
X95146857Y-129241561D01*
X95026219Y-126346009D02*
X96026219Y-126346009D01*
X95692885Y-127250771D02*
X95026219Y-127250771D01*
X96073838Y-127012676D02*
X95359552Y-126774580D01*
X95359552Y-127393628D01*
X95051619Y-123806009D02*
X96051619Y-123806009D01*
X96051619Y-124758390D02*
X96051619Y-124282200D01*
X95575428Y-124234580D01*
X95623047Y-124282200D01*
X95670666Y-124377438D01*
X95670666Y-124615533D01*
X95623047Y-124710771D01*
X95575428Y-124758390D01*
X95480190Y-124806009D01*
X95242095Y-124806009D01*
X95146857Y-124758390D01*
X95099238Y-124710771D01*
X95051619Y-124615533D01*
X95051619Y-124377438D01*
X95099238Y-124282200D01*
X95146857Y-124234580D01*
X95102419Y-121215209D02*
X96102419Y-121215209D01*
X96102419Y-122119971D02*
X96102419Y-121929495D01*
X96054800Y-121834257D01*
X96007180Y-121786638D01*
X95864323Y-121691400D01*
X95673847Y-121643780D01*
X95292895Y-121643780D01*
X95197657Y-121691400D01*
X95150038Y-121739019D01*
X95102419Y-121834257D01*
X95102419Y-122024733D01*
X95150038Y-122119971D01*
X95197657Y-122167590D01*
X95292895Y-122215209D01*
X95530990Y-122215209D01*
X95626228Y-122167590D01*
X95673847Y-122119971D01*
X95721466Y-122024733D01*
X95721466Y-121834257D01*
X95673847Y-121739019D01*
X95626228Y-121691400D01*
X95530990Y-121643780D01*
X95051619Y-118827609D02*
X96051619Y-118827609D01*
X96051619Y-119208561D02*
X96051619Y-119875228D01*
X95051619Y-119446657D01*
X96077019Y-116116171D02*
X96077019Y-116306647D01*
X96029400Y-116401885D01*
X95934161Y-116497123D01*
X95743685Y-116544742D01*
X95410352Y-116544742D01*
X95219876Y-116497123D01*
X95124638Y-116401885D01*
X95077019Y-116306647D01*
X95077019Y-116116171D01*
X95124638Y-116020933D01*
X95219876Y-115925695D01*
X95410352Y-115878076D01*
X95743685Y-115878076D01*
X95934161Y-115925695D01*
X96029400Y-116020933D01*
X96077019Y-116116171D01*
X96077019Y-117163790D02*
X96077019Y-117259028D01*
X96029400Y-117354266D01*
X95981780Y-117401885D01*
X95886542Y-117449504D01*
X95696066Y-117497123D01*
X95457971Y-117497123D01*
X95267495Y-117449504D01*
X95172257Y-117401885D01*
X95124638Y-117354266D01*
X95077019Y-117259028D01*
X95077019Y-117163790D01*
X95124638Y-117068552D01*
X95172257Y-117020933D01*
X95267495Y-116973314D01*
X95457971Y-116925695D01*
X95696066Y-116925695D01*
X95886542Y-116973314D01*
X95981780Y-117020933D01*
X96029400Y-117068552D01*
X96077019Y-117163790D01*
X96026219Y-113626971D02*
X96026219Y-113817447D01*
X95978600Y-113912685D01*
X95883361Y-114007923D01*
X95692885Y-114055542D01*
X95359552Y-114055542D01*
X95169076Y-114007923D01*
X95073838Y-113912685D01*
X95026219Y-113817447D01*
X95026219Y-113626971D01*
X95073838Y-113531733D01*
X95169076Y-113436495D01*
X95359552Y-113388876D01*
X95692885Y-113388876D01*
X95883361Y-113436495D01*
X95978600Y-113531733D01*
X96026219Y-113626971D01*
X95026219Y-115007923D02*
X95026219Y-114436495D01*
X95026219Y-114722209D02*
X96026219Y-114722209D01*
X95883361Y-114626971D01*
X95788123Y-114531733D01*
X95740504Y-114436495D01*
X96077019Y-110959971D02*
X96077019Y-111150447D01*
X96029400Y-111245685D01*
X95934161Y-111340923D01*
X95743685Y-111388542D01*
X95410352Y-111388542D01*
X95219876Y-111340923D01*
X95124638Y-111245685D01*
X95077019Y-111150447D01*
X95077019Y-110959971D01*
X95124638Y-110864733D01*
X95219876Y-110769495D01*
X95410352Y-110721876D01*
X95743685Y-110721876D01*
X95934161Y-110769495D01*
X96029400Y-110864733D01*
X96077019Y-110959971D01*
X95981780Y-111769495D02*
X96029400Y-111817114D01*
X96077019Y-111912352D01*
X96077019Y-112150447D01*
X96029400Y-112245685D01*
X95981780Y-112293304D01*
X95886542Y-112340923D01*
X95791304Y-112340923D01*
X95648447Y-112293304D01*
X95077019Y-111721876D01*
X95077019Y-112340923D01*
X96026219Y-108445371D02*
X96026219Y-108635847D01*
X95978600Y-108731085D01*
X95883361Y-108826323D01*
X95692885Y-108873942D01*
X95359552Y-108873942D01*
X95169076Y-108826323D01*
X95073838Y-108731085D01*
X95026219Y-108635847D01*
X95026219Y-108445371D01*
X95073838Y-108350133D01*
X95169076Y-108254895D01*
X95359552Y-108207276D01*
X95692885Y-108207276D01*
X95883361Y-108254895D01*
X95978600Y-108350133D01*
X96026219Y-108445371D01*
X96026219Y-109207276D02*
X96026219Y-109826323D01*
X95645266Y-109492990D01*
X95645266Y-109635847D01*
X95597647Y-109731085D01*
X95550028Y-109778704D01*
X95454790Y-109826323D01*
X95216695Y-109826323D01*
X95121457Y-109778704D01*
X95073838Y-109731085D01*
X95026219Y-109635847D01*
X95026219Y-109350133D01*
X95073838Y-109254895D01*
X95121457Y-109207276D01*
X95950019Y-105854571D02*
X95950019Y-106045047D01*
X95902400Y-106140285D01*
X95807161Y-106235523D01*
X95616685Y-106283142D01*
X95283352Y-106283142D01*
X95092876Y-106235523D01*
X94997638Y-106140285D01*
X94950019Y-106045047D01*
X94950019Y-105854571D01*
X94997638Y-105759333D01*
X95092876Y-105664095D01*
X95283352Y-105616476D01*
X95616685Y-105616476D01*
X95807161Y-105664095D01*
X95902400Y-105759333D01*
X95950019Y-105854571D01*
X95616685Y-107140285D02*
X94950019Y-107140285D01*
X95997638Y-106902190D02*
X95283352Y-106664095D01*
X95283352Y-107283142D01*
X96000819Y-103466971D02*
X96000819Y-103657447D01*
X95953200Y-103752685D01*
X95857961Y-103847923D01*
X95667485Y-103895542D01*
X95334152Y-103895542D01*
X95143676Y-103847923D01*
X95048438Y-103752685D01*
X95000819Y-103657447D01*
X95000819Y-103466971D01*
X95048438Y-103371733D01*
X95143676Y-103276495D01*
X95334152Y-103228876D01*
X95667485Y-103228876D01*
X95857961Y-103276495D01*
X95953200Y-103371733D01*
X96000819Y-103466971D01*
X96000819Y-104800304D02*
X96000819Y-104324114D01*
X95524628Y-104276495D01*
X95572247Y-104324114D01*
X95619866Y-104419352D01*
X95619866Y-104657447D01*
X95572247Y-104752685D01*
X95524628Y-104800304D01*
X95429390Y-104847923D01*
X95191295Y-104847923D01*
X95096057Y-104800304D01*
X95048438Y-104752685D01*
X95000819Y-104657447D01*
X95000819Y-104419352D01*
X95048438Y-104324114D01*
X95096057Y-104276495D01*
X96077019Y-100774571D02*
X96077019Y-100965047D01*
X96029400Y-101060285D01*
X95934161Y-101155523D01*
X95743685Y-101203142D01*
X95410352Y-101203142D01*
X95219876Y-101155523D01*
X95124638Y-101060285D01*
X95077019Y-100965047D01*
X95077019Y-100774571D01*
X95124638Y-100679333D01*
X95219876Y-100584095D01*
X95410352Y-100536476D01*
X95743685Y-100536476D01*
X95934161Y-100584095D01*
X96029400Y-100679333D01*
X96077019Y-100774571D01*
X96077019Y-102060285D02*
X96077019Y-101869809D01*
X96029400Y-101774571D01*
X95981780Y-101726952D01*
X95838923Y-101631714D01*
X95648447Y-101584095D01*
X95267495Y-101584095D01*
X95172257Y-101631714D01*
X95124638Y-101679333D01*
X95077019Y-101774571D01*
X95077019Y-101965047D01*
X95124638Y-102060285D01*
X95172257Y-102107904D01*
X95267495Y-102155523D01*
X95505590Y-102155523D01*
X95600828Y-102107904D01*
X95648447Y-102060285D01*
X95696066Y-101965047D01*
X95696066Y-101774571D01*
X95648447Y-101679333D01*
X95600828Y-101631714D01*
X95505590Y-101584095D01*
X96051619Y-98285371D02*
X96051619Y-98475847D01*
X96004000Y-98571085D01*
X95908761Y-98666323D01*
X95718285Y-98713942D01*
X95384952Y-98713942D01*
X95194476Y-98666323D01*
X95099238Y-98571085D01*
X95051619Y-98475847D01*
X95051619Y-98285371D01*
X95099238Y-98190133D01*
X95194476Y-98094895D01*
X95384952Y-98047276D01*
X95718285Y-98047276D01*
X95908761Y-98094895D01*
X96004000Y-98190133D01*
X96051619Y-98285371D01*
X96051619Y-99047276D02*
X96051619Y-99713942D01*
X95051619Y-99285371D01*
X95143819Y-96718380D02*
X95143819Y-95718380D01*
X95524771Y-95718380D01*
X95620009Y-95766000D01*
X95667628Y-95813619D01*
X95715247Y-95908857D01*
X95715247Y-96051714D01*
X95667628Y-96146952D01*
X95620009Y-96194571D01*
X95524771Y-96242190D01*
X95143819Y-96242190D01*
X96667628Y-96718380D02*
X96096200Y-96718380D01*
X96381914Y-96718380D02*
X96381914Y-95718380D01*
X96286676Y-95861238D01*
X96191438Y-95956476D01*
X96096200Y-96004095D01*
X97096200Y-96623142D02*
X97143819Y-96670761D01*
X97096200Y-96718380D01*
X97048580Y-96670761D01*
X97096200Y-96623142D01*
X97096200Y-96718380D01*
X97762866Y-95718380D02*
X97858104Y-95718380D01*
X97953342Y-95766000D01*
X98000961Y-95813619D01*
X98048580Y-95908857D01*
X98096200Y-96099333D01*
X98096200Y-96337428D01*
X98048580Y-96527904D01*
X98000961Y-96623142D01*
X97953342Y-96670761D01*
X97858104Y-96718380D01*
X97762866Y-96718380D01*
X97667628Y-96670761D01*
X97620009Y-96623142D01*
X97572390Y-96527904D01*
X97524771Y-96337428D01*
X97524771Y-96099333D01*
X97572390Y-95908857D01*
X97620009Y-95813619D01*
X97667628Y-95766000D01*
X97762866Y-95718380D01*
X95194619Y-94178380D02*
X95194619Y-93178380D01*
X95575571Y-93178380D01*
X95670809Y-93226000D01*
X95718428Y-93273619D01*
X95766047Y-93368857D01*
X95766047Y-93511714D01*
X95718428Y-93606952D01*
X95670809Y-93654571D01*
X95575571Y-93702190D01*
X95194619Y-93702190D01*
X96718428Y-94178380D02*
X96147000Y-94178380D01*
X96432714Y-94178380D02*
X96432714Y-93178380D01*
X96337476Y-93321238D01*
X96242238Y-93416476D01*
X96147000Y-93464095D01*
X97147000Y-94083142D02*
X97194619Y-94130761D01*
X97147000Y-94178380D01*
X97099380Y-94130761D01*
X97147000Y-94083142D01*
X97147000Y-94178380D01*
X98147000Y-94178380D02*
X97575571Y-94178380D01*
X97861285Y-94178380D02*
X97861285Y-93178380D01*
X97766047Y-93321238D01*
X97670809Y-93416476D01*
X97575571Y-93464095D01*
X95194619Y-91739980D02*
X95194619Y-90739980D01*
X95575571Y-90739980D01*
X95670809Y-90787600D01*
X95718428Y-90835219D01*
X95766047Y-90930457D01*
X95766047Y-91073314D01*
X95718428Y-91168552D01*
X95670809Y-91216171D01*
X95575571Y-91263790D01*
X95194619Y-91263790D01*
X96718428Y-91739980D02*
X96147000Y-91739980D01*
X96432714Y-91739980D02*
X96432714Y-90739980D01*
X96337476Y-90882838D01*
X96242238Y-90978076D01*
X96147000Y-91025695D01*
X97147000Y-91644742D02*
X97194619Y-91692361D01*
X97147000Y-91739980D01*
X97099380Y-91692361D01*
X97147000Y-91644742D01*
X97147000Y-91739980D01*
X97575571Y-90835219D02*
X97623190Y-90787600D01*
X97718428Y-90739980D01*
X97956523Y-90739980D01*
X98051761Y-90787600D01*
X98099380Y-90835219D01*
X98147000Y-90930457D01*
X98147000Y-91025695D01*
X98099380Y-91168552D01*
X97527952Y-91739980D01*
X98147000Y-91739980D01*
X95194619Y-89250780D02*
X95194619Y-88250780D01*
X95575571Y-88250780D01*
X95670809Y-88298400D01*
X95718428Y-88346019D01*
X95766047Y-88441257D01*
X95766047Y-88584114D01*
X95718428Y-88679352D01*
X95670809Y-88726971D01*
X95575571Y-88774590D01*
X95194619Y-88774590D01*
X96718428Y-89250780D02*
X96147000Y-89250780D01*
X96432714Y-89250780D02*
X96432714Y-88250780D01*
X96337476Y-88393638D01*
X96242238Y-88488876D01*
X96147000Y-88536495D01*
X97147000Y-89155542D02*
X97194619Y-89203161D01*
X97147000Y-89250780D01*
X97099380Y-89203161D01*
X97147000Y-89155542D01*
X97147000Y-89250780D01*
X97527952Y-88250780D02*
X98147000Y-88250780D01*
X97813666Y-88631733D01*
X97956523Y-88631733D01*
X98051761Y-88679352D01*
X98099380Y-88726971D01*
X98147000Y-88822209D01*
X98147000Y-89060304D01*
X98099380Y-89155542D01*
X98051761Y-89203161D01*
X97956523Y-89250780D01*
X97670809Y-89250780D01*
X97575571Y-89203161D01*
X97527952Y-89155542D01*
X95321619Y-86583780D02*
X95321619Y-85583780D01*
X95702571Y-85583780D01*
X95797809Y-85631400D01*
X95845428Y-85679019D01*
X95893047Y-85774257D01*
X95893047Y-85917114D01*
X95845428Y-86012352D01*
X95797809Y-86059971D01*
X95702571Y-86107590D01*
X95321619Y-86107590D01*
X96845428Y-86583780D02*
X96274000Y-86583780D01*
X96559714Y-86583780D02*
X96559714Y-85583780D01*
X96464476Y-85726638D01*
X96369238Y-85821876D01*
X96274000Y-85869495D01*
X97274000Y-86488542D02*
X97321619Y-86536161D01*
X97274000Y-86583780D01*
X97226380Y-86536161D01*
X97274000Y-86488542D01*
X97274000Y-86583780D01*
X98178761Y-85917114D02*
X98178761Y-86583780D01*
X97940666Y-85536161D02*
X97702571Y-86250447D01*
X98321619Y-86250447D01*
X95169219Y-84094580D02*
X95169219Y-83094580D01*
X95550171Y-83094580D01*
X95645409Y-83142200D01*
X95693028Y-83189819D01*
X95740647Y-83285057D01*
X95740647Y-83427914D01*
X95693028Y-83523152D01*
X95645409Y-83570771D01*
X95550171Y-83618390D01*
X95169219Y-83618390D01*
X96693028Y-84094580D02*
X96121600Y-84094580D01*
X96407314Y-84094580D02*
X96407314Y-83094580D01*
X96312076Y-83237438D01*
X96216838Y-83332676D01*
X96121600Y-83380295D01*
X97121600Y-83999342D02*
X97169219Y-84046961D01*
X97121600Y-84094580D01*
X97073980Y-84046961D01*
X97121600Y-83999342D01*
X97121600Y-84094580D01*
X98073980Y-83094580D02*
X97597790Y-83094580D01*
X97550171Y-83570771D01*
X97597790Y-83523152D01*
X97693028Y-83475533D01*
X97931123Y-83475533D01*
X98026361Y-83523152D01*
X98073980Y-83570771D01*
X98121600Y-83666009D01*
X98121600Y-83904104D01*
X98073980Y-83999342D01*
X98026361Y-84046961D01*
X97931123Y-84094580D01*
X97693028Y-84094580D01*
X97597790Y-84046961D01*
X97550171Y-83999342D01*
X95169219Y-81605380D02*
X95169219Y-80605380D01*
X95550171Y-80605380D01*
X95645409Y-80653000D01*
X95693028Y-80700619D01*
X95740647Y-80795857D01*
X95740647Y-80938714D01*
X95693028Y-81033952D01*
X95645409Y-81081571D01*
X95550171Y-81129190D01*
X95169219Y-81129190D01*
X96693028Y-81605380D02*
X96121600Y-81605380D01*
X96407314Y-81605380D02*
X96407314Y-80605380D01*
X96312076Y-80748238D01*
X96216838Y-80843476D01*
X96121600Y-80891095D01*
X97121600Y-81510142D02*
X97169219Y-81557761D01*
X97121600Y-81605380D01*
X97073980Y-81557761D01*
X97121600Y-81510142D01*
X97121600Y-81605380D01*
X98026361Y-80605380D02*
X97835885Y-80605380D01*
X97740647Y-80653000D01*
X97693028Y-80700619D01*
X97597790Y-80843476D01*
X97550171Y-81033952D01*
X97550171Y-81414904D01*
X97597790Y-81510142D01*
X97645409Y-81557761D01*
X97740647Y-81605380D01*
X97931123Y-81605380D01*
X98026361Y-81557761D01*
X98073980Y-81510142D01*
X98121600Y-81414904D01*
X98121600Y-81176809D01*
X98073980Y-81081571D01*
X98026361Y-81033952D01*
X97931123Y-80986333D01*
X97740647Y-80986333D01*
X97645409Y-81033952D01*
X97597790Y-81081571D01*
X97550171Y-81176809D01*
X95169219Y-78989180D02*
X95169219Y-77989180D01*
X95550171Y-77989180D01*
X95645409Y-78036800D01*
X95693028Y-78084419D01*
X95740647Y-78179657D01*
X95740647Y-78322514D01*
X95693028Y-78417752D01*
X95645409Y-78465371D01*
X95550171Y-78512990D01*
X95169219Y-78512990D01*
X96693028Y-78989180D02*
X96121600Y-78989180D01*
X96407314Y-78989180D02*
X96407314Y-77989180D01*
X96312076Y-78132038D01*
X96216838Y-78227276D01*
X96121600Y-78274895D01*
X97121600Y-78893942D02*
X97169219Y-78941561D01*
X97121600Y-78989180D01*
X97073980Y-78941561D01*
X97121600Y-78893942D01*
X97121600Y-78989180D01*
X97502552Y-77989180D02*
X98169219Y-77989180D01*
X97740647Y-78989180D01*
X95732695Y-75423780D02*
X96304123Y-75423780D01*
X96018409Y-76423780D02*
X96018409Y-75423780D01*
X97161266Y-76423780D02*
X96589838Y-76423780D01*
X96875552Y-76423780D02*
X96875552Y-75423780D01*
X96780314Y-75566638D01*
X96685076Y-75661876D01*
X96589838Y-75709495D01*
X95681895Y-72883780D02*
X96253323Y-72883780D01*
X95967609Y-73883780D02*
X95967609Y-72883780D01*
X96777133Y-72883780D02*
X96872371Y-72883780D01*
X96967609Y-72931400D01*
X97015228Y-72979019D01*
X97062847Y-73074257D01*
X97110466Y-73264733D01*
X97110466Y-73502828D01*
X97062847Y-73693304D01*
X97015228Y-73788542D01*
X96967609Y-73836161D01*
X96872371Y-73883780D01*
X96777133Y-73883780D01*
X96681895Y-73836161D01*
X96634276Y-73788542D01*
X96586657Y-73693304D01*
X96539038Y-73502828D01*
X96539038Y-73264733D01*
X96586657Y-73074257D01*
X96634276Y-72979019D01*
X96681895Y-72931400D01*
X96777133Y-72883780D01*
X98072771Y-70118361D02*
X97215628Y-71404076D01*
X99168009Y-71165980D02*
X99168009Y-70165980D01*
X99644200Y-71165980D02*
X99644200Y-70165980D01*
X100215628Y-71165980D01*
X100215628Y-70165980D01*
X100548961Y-70165980D02*
X101120390Y-70165980D01*
X100834676Y-71165980D02*
X100834676Y-70165980D01*
X101977533Y-71165980D02*
X101406104Y-71165980D01*
X101691819Y-71165980D02*
X101691819Y-70165980D01*
X101596580Y-70308838D01*
X101501342Y-70404076D01*
X101406104Y-70451695D01*
X98123571Y-67806961D02*
X97266428Y-69092676D01*
X99218809Y-68854580D02*
X99218809Y-67854580D01*
X99695000Y-68854580D02*
X99695000Y-67854580D01*
X100266428Y-68854580D01*
X100266428Y-67854580D01*
X100599761Y-67854580D02*
X101171190Y-67854580D01*
X100885476Y-68854580D02*
X100885476Y-67854580D01*
X101695000Y-67854580D02*
X101790238Y-67854580D01*
X101885476Y-67902200D01*
X101933095Y-67949819D01*
X101980714Y-68045057D01*
X102028333Y-68235533D01*
X102028333Y-68473628D01*
X101980714Y-68664104D01*
X101933095Y-68759342D01*
X101885476Y-68806961D01*
X101790238Y-68854580D01*
X101695000Y-68854580D01*
X101599761Y-68806961D01*
X101552142Y-68759342D01*
X101504523Y-68664104D01*
X101456904Y-68473628D01*
X101456904Y-68235533D01*
X101504523Y-68045057D01*
X101552142Y-67949819D01*
X101599761Y-67902200D01*
X101695000Y-67854580D01*
D13*
X96189800Y-62534800D02*
X96189800Y-71628000D01*
D12*
X103670929Y-71534868D02*
X103572601Y-71494008D01*
X103521776Y-71449827D01*
X103467629Y-71358142D01*
X103464308Y-71310639D01*
X103505167Y-71212311D01*
X103549349Y-71161487D01*
X103641033Y-71107340D01*
X103831045Y-71094053D01*
X103929373Y-71134913D01*
X103980198Y-71179094D01*
X104034344Y-71270778D01*
X104037666Y-71318282D01*
X103996806Y-71416609D01*
X103952625Y-71467434D01*
X103860941Y-71521581D01*
X103670929Y-71534868D01*
X103579244Y-71589014D01*
X103535063Y-71639839D01*
X103494203Y-71738167D01*
X103507490Y-71928179D01*
X103561637Y-72019863D01*
X103612462Y-72064045D01*
X103710789Y-72104904D01*
X103900802Y-72091617D01*
X103992486Y-72037471D01*
X104036667Y-71986646D01*
X104077527Y-71888318D01*
X104064240Y-71698306D01*
X104010093Y-71606622D01*
X103959269Y-71562440D01*
X103860941Y-71521581D01*
X104638597Y-71037584D02*
X104733603Y-71030940D01*
X104831931Y-71071800D01*
X104882756Y-71115981D01*
X104936902Y-71207665D01*
X104997692Y-71394356D01*
X105014301Y-71631871D01*
X104980085Y-71825205D01*
X104939225Y-71923533D01*
X104895044Y-71974358D01*
X104803359Y-72028504D01*
X104708353Y-72035148D01*
X104610026Y-71994288D01*
X104559201Y-71950107D01*
X104505054Y-71858422D01*
X104444264Y-71671732D01*
X104427656Y-71434217D01*
X104461872Y-71240883D01*
X104502731Y-71142555D01*
X104546913Y-71091730D01*
X104638597Y-71037584D01*
X106031795Y-71847133D02*
X105987614Y-71897958D01*
X105848427Y-71955426D01*
X105753420Y-71962070D01*
X105607590Y-71924532D01*
X105505940Y-71836169D01*
X105451794Y-71744485D01*
X105391004Y-71557794D01*
X105381038Y-71415285D01*
X105415254Y-71221951D01*
X105456114Y-71123623D01*
X105544477Y-71021974D01*
X105683664Y-70964505D01*
X105778670Y-70957862D01*
X105924501Y-70995400D01*
X105975326Y-71039581D01*
X106871240Y-70881462D02*
X106396210Y-70914679D01*
X106381924Y-71393032D01*
X106426105Y-71342207D01*
X106517790Y-71288060D01*
X106755305Y-71271452D01*
X106853633Y-71312311D01*
X106904458Y-71356493D01*
X106958604Y-71448177D01*
X106975213Y-71685692D01*
X106934353Y-71784020D01*
X106890172Y-71834845D01*
X106798488Y-71888991D01*
X106560972Y-71905600D01*
X106462645Y-71864740D01*
X106411820Y-71820559D01*
X107938561Y-71809270D02*
X107368524Y-71849130D01*
X107653542Y-71829200D02*
X107583786Y-70831636D01*
X107498745Y-70980789D01*
X107410383Y-71082438D01*
X107318698Y-71136585D01*
X109582236Y-70739626D02*
X109483908Y-70698767D01*
X109341399Y-70708732D01*
X109202211Y-70766200D01*
X109113849Y-70867850D01*
X109072989Y-70966177D01*
X109038773Y-71159511D01*
X109048738Y-71302020D01*
X109109528Y-71488711D01*
X109163675Y-71580395D01*
X109265324Y-71668758D01*
X109411155Y-71706296D01*
X109506161Y-71699652D01*
X109645349Y-71642184D01*
X109689530Y-71591359D01*
X109666278Y-71258838D01*
X109476266Y-71272125D01*
X110243957Y-70645619D02*
X110433969Y-70632332D01*
X110532297Y-70673191D01*
X110633946Y-70761554D01*
X110694736Y-70948244D01*
X110717989Y-71280766D01*
X110683772Y-71474100D01*
X110595410Y-71575749D01*
X110503725Y-71629896D01*
X110313713Y-71643183D01*
X110215385Y-71602323D01*
X110113736Y-71513961D01*
X110052946Y-71327270D01*
X110029694Y-70994749D01*
X110063910Y-70801415D01*
X110152272Y-70699765D01*
X110243957Y-70645619D01*
X111132229Y-71060858D02*
X111464750Y-71037606D01*
X111643799Y-71550174D02*
X111168768Y-71583392D01*
X111099012Y-70585827D01*
X111574042Y-70552610D01*
X112020501Y-71476097D02*
X112166332Y-71513635D01*
X112403848Y-71497026D01*
X112495532Y-71442880D01*
X112539713Y-71392055D01*
X112580573Y-71293727D01*
X112573929Y-71198721D01*
X112519783Y-71107037D01*
X112468958Y-71062855D01*
X112370630Y-71021996D01*
X112177296Y-70987780D01*
X112078968Y-70946920D01*
X112028144Y-70902739D01*
X111973997Y-70811055D01*
X111967354Y-70716048D01*
X112008213Y-70617721D01*
X112052394Y-70566896D01*
X112144079Y-70512749D01*
X112381594Y-70496141D01*
X112527425Y-70533678D01*
X113569170Y-70413097D02*
X114139207Y-70373236D01*
X113923945Y-71390731D02*
X113854189Y-70393167D01*
X114541485Y-71347548D02*
X114471728Y-70349984D01*
X114504946Y-70825015D02*
X115074982Y-70785154D01*
X115111521Y-71307687D02*
X115041765Y-70310123D01*
X115550013Y-70751936D02*
X115882534Y-70728684D01*
X116061582Y-71241253D02*
X115586552Y-71274470D01*
X115516795Y-70276906D01*
X115991826Y-70243689D01*
X117059146Y-71171496D02*
X116693408Y-70719718D01*
X116489110Y-71211357D02*
X116419353Y-70213793D01*
X116799378Y-70187219D01*
X116897706Y-70228079D01*
X116948530Y-70272260D01*
X117002677Y-70363944D01*
X117012642Y-70506453D01*
X116971783Y-70604781D01*
X116927601Y-70655606D01*
X116835917Y-70709753D01*
X116455892Y-70736327D01*
X117450135Y-70619067D02*
X117782656Y-70595815D01*
X117961704Y-71108383D02*
X117486674Y-71141601D01*
X117416917Y-70144036D01*
X117891948Y-70110819D01*
X118382588Y-70983481D02*
X118433413Y-71027663D01*
X118389232Y-71078488D01*
X118338407Y-71034306D01*
X118382588Y-70983481D01*
X118389232Y-71078488D01*
X116206923Y-111282219D02*
X116254542Y-111234600D01*
X116349780Y-111186980D01*
X116587876Y-111186980D01*
X116683114Y-111234600D01*
X116730733Y-111282219D01*
X116778352Y-111377457D01*
X116778352Y-111472695D01*
X116730733Y-111615552D01*
X116159304Y-112186980D01*
X116778352Y-112186980D01*
X117111685Y-111186980D02*
X117778352Y-111186980D01*
X117349780Y-112186980D01*
X118730733Y-112091742D02*
X118683114Y-112139361D01*
X118540257Y-112186980D01*
X118445019Y-112186980D01*
X118302161Y-112139361D01*
X118206923Y-112044123D01*
X118159304Y-111948885D01*
X118111685Y-111758409D01*
X118111685Y-111615552D01*
X118159304Y-111425076D01*
X118206923Y-111329838D01*
X118302161Y-111234600D01*
X118445019Y-111186980D01*
X118540257Y-111186980D01*
X118683114Y-111234600D01*
X118730733Y-111282219D01*
X119635495Y-111186980D02*
X119159304Y-111186980D01*
X119111685Y-111663171D01*
X119159304Y-111615552D01*
X119254542Y-111567933D01*
X119492638Y-111567933D01*
X119587876Y-111615552D01*
X119635495Y-111663171D01*
X119683114Y-111758409D01*
X119683114Y-111996504D01*
X119635495Y-112091742D01*
X119587876Y-112139361D01*
X119492638Y-112186980D01*
X119254542Y-112186980D01*
X119159304Y-112139361D01*
X119111685Y-112091742D01*
X120635495Y-112186980D02*
X120064066Y-112186980D01*
X120349780Y-112186980D02*
X120349780Y-111186980D01*
X120254542Y-111329838D01*
X120159304Y-111425076D01*
X120064066Y-111472695D01*
X121016447Y-111282219D02*
X121064066Y-111234600D01*
X121159304Y-111186980D01*
X121397400Y-111186980D01*
X121492638Y-111234600D01*
X121540257Y-111282219D01*
X121587876Y-111377457D01*
X121587876Y-111472695D01*
X121540257Y-111615552D01*
X120968828Y-112186980D01*
X121587876Y-112186980D01*
X100950780Y-106893904D02*
X100950780Y-106227238D01*
X101950780Y-106655809D01*
X101284114Y-105417714D02*
X101950780Y-105417714D01*
X100903161Y-105655809D02*
X101617447Y-105893904D01*
X101617447Y-105274857D01*
X101950780Y-104893904D02*
X100950780Y-104893904D01*
X101426971Y-104893904D02*
X101426971Y-104322476D01*
X101950780Y-104322476D02*
X100950780Y-104322476D01*
X101855542Y-103274857D02*
X101903161Y-103322476D01*
X101950780Y-103465333D01*
X101950780Y-103560571D01*
X101903161Y-103703428D01*
X101807923Y-103798666D01*
X101712685Y-103846285D01*
X101522209Y-103893904D01*
X101379352Y-103893904D01*
X101188876Y-103846285D01*
X101093638Y-103798666D01*
X100998400Y-103703428D01*
X100950780Y-103560571D01*
X100950780Y-103465333D01*
X100998400Y-103322476D01*
X101046019Y-103274857D01*
X100950780Y-102941523D02*
X100950780Y-102322476D01*
X101331733Y-102655809D01*
X101331733Y-102512952D01*
X101379352Y-102417714D01*
X101426971Y-102370095D01*
X101522209Y-102322476D01*
X101760304Y-102322476D01*
X101855542Y-102370095D01*
X101903161Y-102417714D01*
X101950780Y-102512952D01*
X101950780Y-102798666D01*
X101903161Y-102893904D01*
X101855542Y-102941523D01*
X100950780Y-101989142D02*
X100950780Y-101322476D01*
X101950780Y-101751047D01*
X100950780Y-101036761D02*
X100950780Y-100417714D01*
X101331733Y-100751047D01*
X101331733Y-100608190D01*
X101379352Y-100512952D01*
X101426971Y-100465333D01*
X101522209Y-100417714D01*
X101760304Y-100417714D01*
X101855542Y-100465333D01*
X101903161Y-100512952D01*
X101950780Y-100608190D01*
X101950780Y-100893904D01*
X101903161Y-100989142D01*
X101855542Y-101036761D01*
X101890580Y-133309904D02*
X101890580Y-132643238D01*
X102890580Y-133071809D01*
X102223914Y-131833714D02*
X102890580Y-131833714D01*
X101842961Y-132071809D02*
X102557247Y-132309904D01*
X102557247Y-131690857D01*
X102890580Y-131309904D02*
X101890580Y-131309904D01*
X102366771Y-131309904D02*
X102366771Y-130738476D01*
X102890580Y-130738476D02*
X101890580Y-130738476D01*
X102795342Y-129690857D02*
X102842961Y-129738476D01*
X102890580Y-129881333D01*
X102890580Y-129976571D01*
X102842961Y-130119428D01*
X102747723Y-130214666D01*
X102652485Y-130262285D01*
X102462009Y-130309904D01*
X102319152Y-130309904D01*
X102128676Y-130262285D01*
X102033438Y-130214666D01*
X101938200Y-130119428D01*
X101890580Y-129976571D01*
X101890580Y-129881333D01*
X101938200Y-129738476D01*
X101985819Y-129690857D01*
X101985819Y-129309904D02*
X101938200Y-129262285D01*
X101890580Y-129167047D01*
X101890580Y-128928952D01*
X101938200Y-128833714D01*
X101985819Y-128786095D01*
X102081057Y-128738476D01*
X102176295Y-128738476D01*
X102319152Y-128786095D01*
X102890580Y-129357523D01*
X102890580Y-128738476D01*
X102223914Y-127881333D02*
X102890580Y-127881333D01*
X101842961Y-128119428D02*
X102557247Y-128357523D01*
X102557247Y-127738476D01*
X102223914Y-126928952D02*
X102890580Y-126928952D01*
X101842961Y-127167047D02*
X102557247Y-127405142D01*
X102557247Y-126786095D01*
X105462533Y-112704619D02*
X105510152Y-112657000D01*
X105605390Y-112609380D01*
X105843485Y-112609380D01*
X105938723Y-112657000D01*
X105986342Y-112704619D01*
X106033961Y-112799857D01*
X106033961Y-112895095D01*
X105986342Y-113037952D01*
X105414914Y-113609380D01*
X106033961Y-113609380D01*
X106462533Y-113609380D02*
X106462533Y-112609380D01*
X106557771Y-113228428D02*
X106843485Y-113609380D01*
X106843485Y-112942714D02*
X106462533Y-113323666D01*
X107224438Y-112704619D02*
X107272057Y-112657000D01*
X107367295Y-112609380D01*
X107605390Y-112609380D01*
X107700628Y-112657000D01*
X107748247Y-112704619D01*
X107795866Y-112799857D01*
X107795866Y-112895095D01*
X107748247Y-113037952D01*
X107176819Y-113609380D01*
X107795866Y-113609380D01*
X102366723Y-95988142D02*
X102319104Y-96035761D01*
X102176247Y-96083380D01*
X102081009Y-96083380D01*
X101938152Y-96035761D01*
X101842914Y-95940523D01*
X101795295Y-95845285D01*
X101747676Y-95654809D01*
X101747676Y-95511952D01*
X101795295Y-95321476D01*
X101842914Y-95226238D01*
X101938152Y-95131000D01*
X102081009Y-95083380D01*
X102176247Y-95083380D01*
X102319104Y-95131000D01*
X102366723Y-95178619D01*
X101347828Y-80725971D02*
X101490685Y-80773590D01*
X101538304Y-80821209D01*
X101585923Y-80916447D01*
X101585923Y-81059304D01*
X101538304Y-81154542D01*
X101490685Y-81202161D01*
X101395447Y-81249780D01*
X101014495Y-81249780D01*
X101014495Y-80249780D01*
X101347828Y-80249780D01*
X101443066Y-80297400D01*
X101490685Y-80345019D01*
X101538304Y-80440257D01*
X101538304Y-80535495D01*
X101490685Y-80630733D01*
X101443066Y-80678352D01*
X101347828Y-80725971D01*
X101014495Y-80725971D01*
X102585923Y-81249780D02*
X102252590Y-80773590D01*
X102014495Y-81249780D02*
X102014495Y-80249780D01*
X102395447Y-80249780D01*
X102490685Y-80297400D01*
X102538304Y-80345019D01*
X102585923Y-80440257D01*
X102585923Y-80583114D01*
X102538304Y-80678352D01*
X102490685Y-80725971D01*
X102395447Y-80773590D01*
X102014495Y-80773590D01*
X103585923Y-81249780D02*
X103252590Y-80773590D01*
X103014495Y-81249780D02*
X103014495Y-80249780D01*
X103395447Y-80249780D01*
X103490685Y-80297400D01*
X103538304Y-80345019D01*
X103585923Y-80440257D01*
X103585923Y-80583114D01*
X103538304Y-80678352D01*
X103490685Y-80725971D01*
X103395447Y-80773590D01*
X103014495Y-80773590D01*
X104585923Y-81249780D02*
X104252590Y-80773590D01*
X104014495Y-81249780D02*
X104014495Y-80249780D01*
X104395447Y-80249780D01*
X104490685Y-80297400D01*
X104538304Y-80345019D01*
X104585923Y-80440257D01*
X104585923Y-80583114D01*
X104538304Y-80678352D01*
X104490685Y-80725971D01*
X104395447Y-80773590D01*
X104014495Y-80773590D01*
X105585923Y-81249780D02*
X105252590Y-80773590D01*
X105014495Y-81249780D02*
X105014495Y-80249780D01*
X105395447Y-80249780D01*
X105490685Y-80297400D01*
X105538304Y-80345019D01*
X105585923Y-80440257D01*
X105585923Y-80583114D01*
X105538304Y-80678352D01*
X105490685Y-80725971D01*
X105395447Y-80773590D01*
X105014495Y-80773590D01*
X99594942Y-82519876D02*
X99642561Y-82567495D01*
X99690180Y-82710352D01*
X99690180Y-82805590D01*
X99642561Y-82948447D01*
X99547323Y-83043685D01*
X99452085Y-83091304D01*
X99261609Y-83138923D01*
X99118752Y-83138923D01*
X98928276Y-83091304D01*
X98833038Y-83043685D01*
X98737800Y-82948447D01*
X98690180Y-82805590D01*
X98690180Y-82710352D01*
X98737800Y-82567495D01*
X98785419Y-82519876D01*
X99594942Y-78379676D02*
X99642561Y-78427295D01*
X99690180Y-78570152D01*
X99690180Y-78665390D01*
X99642561Y-78808247D01*
X99547323Y-78903485D01*
X99452085Y-78951104D01*
X99261609Y-78998723D01*
X99118752Y-78998723D01*
X98928276Y-78951104D01*
X98833038Y-78903485D01*
X98737800Y-78808247D01*
X98690180Y-78665390D01*
X98690180Y-78570152D01*
X98737800Y-78427295D01*
X98785419Y-78379676D01*
X101781123Y-65339980D02*
X102352552Y-65339980D01*
X102066838Y-66339980D02*
X102066838Y-65339980D01*
X102590647Y-66339980D02*
X103114457Y-65673314D01*
X102590647Y-65673314D02*
X103114457Y-66339980D01*
X103495409Y-66339980D02*
X103495409Y-65339980D01*
X103733504Y-65339980D01*
X103876361Y-65387600D01*
X103971600Y-65482838D01*
X104019219Y-65578076D01*
X104066838Y-65768552D01*
X104066838Y-65911409D01*
X104019219Y-66101885D01*
X103971600Y-66197123D01*
X103876361Y-66292361D01*
X103733504Y-66339980D01*
X103495409Y-66339980D01*
X102350961Y-63774580D02*
X102017628Y-63298390D01*
X101779533Y-63774580D02*
X101779533Y-62774580D01*
X102160485Y-62774580D01*
X102255723Y-62822200D01*
X102303342Y-62869819D01*
X102350961Y-62965057D01*
X102350961Y-63107914D01*
X102303342Y-63203152D01*
X102255723Y-63250771D01*
X102160485Y-63298390D01*
X101779533Y-63298390D01*
X102684295Y-63774580D02*
X103208104Y-63107914D01*
X102684295Y-63107914D02*
X103208104Y-63774580D01*
X103589057Y-63774580D02*
X103589057Y-62774580D01*
X103827152Y-62774580D01*
X103970009Y-62822200D01*
X104065247Y-62917438D01*
X104112866Y-63012676D01*
X104160485Y-63203152D01*
X104160485Y-63346009D01*
X104112866Y-63536485D01*
X104065247Y-63631723D01*
X103970009Y-63726961D01*
X103827152Y-63774580D01*
X103589057Y-63774580D01*
X115025657Y-65663771D02*
X115168514Y-65711390D01*
X115216133Y-65759009D01*
X115263752Y-65854247D01*
X115263752Y-65997104D01*
X115216133Y-66092342D01*
X115168514Y-66139961D01*
X115073276Y-66187580D01*
X114692323Y-66187580D01*
X114692323Y-65187580D01*
X115025657Y-65187580D01*
X115120895Y-65235200D01*
X115168514Y-65282819D01*
X115216133Y-65378057D01*
X115216133Y-65473295D01*
X115168514Y-65568533D01*
X115120895Y-65616152D01*
X115025657Y-65663771D01*
X114692323Y-65663771D01*
X115597085Y-65187580D02*
X116263752Y-65187580D01*
X115597085Y-66187580D01*
X116263752Y-66187580D01*
X116549466Y-65187580D02*
X117216133Y-65187580D01*
X116549466Y-66187580D01*
X117216133Y-66187580D01*
X117501847Y-65187580D02*
X118168514Y-65187580D01*
X117501847Y-66187580D01*
X118168514Y-66187580D01*
X121764609Y-70134171D02*
X121907466Y-70181790D01*
X121955085Y-70229409D01*
X122002704Y-70324647D01*
X122002704Y-70467504D01*
X121955085Y-70562742D01*
X121907466Y-70610361D01*
X121812228Y-70657980D01*
X121431276Y-70657980D01*
X121431276Y-69657980D01*
X121764609Y-69657980D01*
X121859847Y-69705600D01*
X121907466Y-69753219D01*
X121955085Y-69848457D01*
X121955085Y-69943695D01*
X121907466Y-70038933D01*
X121859847Y-70086552D01*
X121764609Y-70134171D01*
X121431276Y-70134171D01*
X122621752Y-69657980D02*
X122812228Y-69657980D01*
X122907466Y-69705600D01*
X123002704Y-69800838D01*
X123050323Y-69991314D01*
X123050323Y-70324647D01*
X123002704Y-70515123D01*
X122907466Y-70610361D01*
X122812228Y-70657980D01*
X122621752Y-70657980D01*
X122526514Y-70610361D01*
X122431276Y-70515123D01*
X122383657Y-70324647D01*
X122383657Y-69991314D01*
X122431276Y-69800838D01*
X122526514Y-69705600D01*
X122621752Y-69657980D01*
X123669371Y-69657980D02*
X123859847Y-69657980D01*
X123955085Y-69705600D01*
X124050323Y-69800838D01*
X124097942Y-69991314D01*
X124097942Y-70324647D01*
X124050323Y-70515123D01*
X123955085Y-70610361D01*
X123859847Y-70657980D01*
X123669371Y-70657980D01*
X123574133Y-70610361D01*
X123478895Y-70515123D01*
X123431276Y-70324647D01*
X123431276Y-69991314D01*
X123478895Y-69800838D01*
X123574133Y-69705600D01*
X123669371Y-69657980D01*
X124526514Y-70657980D02*
X124526514Y-69657980D01*
X124907466Y-69657980D01*
X125002704Y-69705600D01*
X125050323Y-69753219D01*
X125097942Y-69848457D01*
X125097942Y-69991314D01*
X125050323Y-70086552D01*
X125002704Y-70134171D01*
X124907466Y-70181790D01*
X124526514Y-70181790D01*
D10*
%TO.C,J5*%
X124000000Y-118970000D02*
X125330000Y-118970000D01*
X125330000Y-118970000D02*
X125330000Y-120300000D01*
X125330000Y-121510000D02*
X125330000Y-121630000D01*
X122670000Y-121510000D02*
X122670000Y-121630000D01*
X122670000Y-121630000D02*
X125330000Y-121630000D01*
%TO.C,U5*%
X117870000Y-101170000D02*
X112410000Y-101170000D01*
X112410000Y-101170000D02*
X112410000Y-136850000D01*
X112410000Y-136850000D02*
X125330000Y-136850000D01*
X125330000Y-136850000D02*
X125330000Y-101170000D01*
X125330000Y-101170000D02*
X119870000Y-101170000D01*
X119870000Y-101170000D02*
G75*
G02*
X117870000Y-101170000I-1000000J0D01*
G01*
%TO.C,J4*%
X123003000Y-103886000D02*
X125663000Y-103886000D01*
X123003000Y-103886000D02*
X123003000Y-106486000D01*
X123003000Y-106486000D02*
X125663000Y-106486000D01*
X125663000Y-103886000D02*
X125663000Y-106486000D01*
X125663000Y-101286000D02*
X125663000Y-102616000D01*
X124333000Y-101286000D02*
X125663000Y-101286000D01*
%TO.C,J3*%
X114614000Y-101219000D02*
X111954000Y-101219000D01*
X114614000Y-101219000D02*
X114614000Y-98619000D01*
X114614000Y-98619000D02*
X111954000Y-98619000D01*
X111954000Y-101219000D02*
X111954000Y-98619000D01*
X111954000Y-103819000D02*
X111954000Y-102489000D01*
X113284000Y-103819000D02*
X111954000Y-103819000D01*
%TO.C,D4*%
X98323000Y-66873000D02*
X101183000Y-66873000D01*
X101183000Y-66873000D02*
X101183000Y-64953000D01*
X101183000Y-64953000D02*
X98323000Y-64953000D01*
%TO.C,D3*%
X98305000Y-64206000D02*
X101165000Y-64206000D01*
X101165000Y-64206000D02*
X101165000Y-62286000D01*
X101165000Y-62286000D02*
X98305000Y-62286000D01*
%TO.C,R5*%
X103604852Y-113968600D02*
X103082348Y-113968600D01*
X103604852Y-112548600D02*
X103082348Y-112548600D01*
%TO.C,D2*%
X104731500Y-118639000D02*
X104731500Y-118174000D01*
X104731500Y-116014000D02*
X104731500Y-115549000D01*
X99917021Y-116013571D02*
G75*
G02*
X104426184Y-116014000I2254479J-1080429D01*
G01*
X99917021Y-118174429D02*
G75*
G03*
X104426184Y-118174000I2254479J1080429D01*
G01*
X99383685Y-116013173D02*
G75*
G02*
X104731500Y-115549170I2787815J-1080827D01*
G01*
X99383685Y-118174827D02*
G75*
G03*
X104731500Y-118638830I2787815J1080827D01*
G01*
%TO.C,D1*%
X117475000Y-62540000D02*
X114615000Y-62540000D01*
X114615000Y-62540000D02*
X114615000Y-64460000D01*
X114615000Y-64460000D02*
X117475000Y-64460000D01*
%TO.C,C4*%
X102724364Y-96490200D02*
X101520236Y-96490200D01*
X102724364Y-94670200D02*
X101520236Y-94670200D01*
%TO.C,J2*%
X89630000Y-138320000D02*
X94830000Y-138320000D01*
X89630000Y-64600000D02*
X89630000Y-138320000D01*
X94830000Y-62000000D02*
X94830000Y-138320000D01*
X89630000Y-64600000D02*
X92230000Y-64600000D01*
X92230000Y-64600000D02*
X92230000Y-62000000D01*
X92230000Y-62000000D02*
X94830000Y-62000000D01*
X89630000Y-63330000D02*
X89630000Y-62000000D01*
X89630000Y-62000000D02*
X90960000Y-62000000D01*
%TO.C,Y1*%
X100725000Y-77490000D02*
X100725000Y-83890000D01*
X105775000Y-77490000D02*
X105775000Y-83890000D01*
X100725000Y-83890000D02*
G75*
G03*
X105775000Y-83890000I2525000J0D01*
G01*
X100725000Y-77490000D02*
G75*
G02*
X105775000Y-77490000I2525000J0D01*
G01*
D12*
%TO.C,U3*%
X98125000Y-97175000D02*
X96325000Y-97175000D01*
X98125000Y-110075000D02*
X105875000Y-110075000D01*
X98125000Y-96925000D02*
X105875000Y-96925000D01*
X98125000Y-110075000D02*
X98125000Y-109740000D01*
X105875000Y-110075000D02*
X105875000Y-109740000D01*
X105875000Y-96925000D02*
X105875000Y-97260000D01*
X98125000Y-96925000D02*
X98125000Y-97175000D01*
%TO.C,U2*%
X106175000Y-136575000D02*
X107975000Y-136575000D01*
X106175000Y-123675000D02*
X98425000Y-123675000D01*
X106175000Y-136825000D02*
X98425000Y-136825000D01*
X106175000Y-123675000D02*
X106175000Y-124010000D01*
X98425000Y-123675000D02*
X98425000Y-124010000D01*
X98425000Y-136825000D02*
X98425000Y-136490000D01*
X106175000Y-136825000D02*
X106175000Y-136575000D01*
D14*
%TO.C,U1*%
X107025000Y-92915000D02*
X108675000Y-92915000D01*
X107025000Y-91265000D02*
X107025000Y-92915000D01*
X107025000Y-74965000D02*
X108675000Y-74965000D01*
X107025000Y-76615000D02*
X107025000Y-74965000D01*
X124975000Y-92915000D02*
X123325000Y-92915000D01*
X124975000Y-91265000D02*
X124975000Y-92915000D01*
X123825000Y-74965000D02*
X123325000Y-74965000D01*
X124975000Y-76115000D02*
X123825000Y-74965000D01*
X124975000Y-76615000D02*
X124975000Y-76115000D01*
D10*
%TO.C,SW1*%
X126750000Y-66500000D02*
X126750000Y-65000000D01*
X125500000Y-62500000D02*
X121000000Y-62500000D01*
X119750000Y-65000000D02*
X119750000Y-66500000D01*
X121000000Y-69000000D02*
X125500000Y-69000000D01*
%TO.C,J1*%
X112970000Y-84582000D02*
X112970000Y-83252000D01*
X112970000Y-83252000D02*
X114300000Y-83252000D01*
X115570000Y-83252000D02*
X118170000Y-83252000D01*
X118170000Y-85912000D02*
X118170000Y-83252000D01*
X115570000Y-85912000D02*
X118170000Y-85912000D01*
X115570000Y-85912000D02*
X115570000Y-83252000D01*
%TO.C,C2*%
X99897000Y-83056252D02*
X99897000Y-82533748D01*
X98477000Y-83056252D02*
X98477000Y-82533748D01*
%TO.C,C1*%
X98477000Y-78342748D02*
X98477000Y-78865252D01*
X99897000Y-78342748D02*
X99897000Y-78865252D01*
%TD*%
M02*
