%TF.GenerationSoftware,KiCad,Pcbnew,5.1.9+dfsg1-1+deb11u1*%
%TF.CreationDate,2024-10-31T16:52:42-07:00*%
%TF.ProjectId,8051,38303531-2e6b-4696-9361-645f70636258,rev?*%
%TF.SameCoordinates,Original*%
%TF.FileFunction,Paste,Bot*%
%TF.FilePolarity,Positive*%
%FSLAX46Y46*%
G04 Gerber Fmt 4.6, Leading zero omitted, Abs format (unit mm)*
G04 Created by KiCad (PCBNEW 5.1.9+dfsg1-1+deb11u1) date 2024-10-31 16:52:42*
%MOMM*%
%LPD*%
G01*
G04 APERTURE LIST*
%ADD10R,1.950000X0.600000*%
G04 APERTURE END LIST*
%TO.C,C8*%
G36*
G01*
X102875000Y-68775000D02*
X104125000Y-68775000D01*
G75*
G02*
X104375000Y-69025000I0J-250000D01*
G01*
X104375000Y-69950000D01*
G75*
G02*
X104125000Y-70200000I-250000J0D01*
G01*
X102875000Y-70200000D01*
G75*
G02*
X102625000Y-69950000I0J250000D01*
G01*
X102625000Y-69025000D01*
G75*
G02*
X102875000Y-68775000I250000J0D01*
G01*
G37*
G36*
G01*
X102875000Y-65800000D02*
X104125000Y-65800000D01*
G75*
G02*
X104375000Y-66050000I0J-250000D01*
G01*
X104375000Y-66975000D01*
G75*
G02*
X104125000Y-67225000I-250000J0D01*
G01*
X102875000Y-67225000D01*
G75*
G02*
X102625000Y-66975000I0J250000D01*
G01*
X102625000Y-66050000D01*
G75*
G02*
X102875000Y-65800000I250000J0D01*
G01*
G37*
%TD*%
%TO.C,R9*%
G36*
G01*
X96959000Y-70415999D02*
X96959000Y-71316001D01*
G75*
G02*
X96709001Y-71566000I-249999J0D01*
G01*
X96058999Y-71566000D01*
G75*
G02*
X95809000Y-71316001I0J249999D01*
G01*
X95809000Y-70415999D01*
G75*
G02*
X96058999Y-70166000I249999J0D01*
G01*
X96709001Y-70166000D01*
G75*
G02*
X96959000Y-70415999I0J-249999D01*
G01*
G37*
G36*
G01*
X99009000Y-70415999D02*
X99009000Y-71316001D01*
G75*
G02*
X98759001Y-71566000I-249999J0D01*
G01*
X98108999Y-71566000D01*
G75*
G02*
X97859000Y-71316001I0J249999D01*
G01*
X97859000Y-70415999D01*
G75*
G02*
X98108999Y-70166000I249999J0D01*
G01*
X98759001Y-70166000D01*
G75*
G02*
X99009000Y-70415999I0J-249999D01*
G01*
G37*
%TD*%
%TO.C,R8*%
G36*
G01*
X96968000Y-67875999D02*
X96968000Y-68776001D01*
G75*
G02*
X96718001Y-69026000I-249999J0D01*
G01*
X96067999Y-69026000D01*
G75*
G02*
X95818000Y-68776001I0J249999D01*
G01*
X95818000Y-67875999D01*
G75*
G02*
X96067999Y-67626000I249999J0D01*
G01*
X96718001Y-67626000D01*
G75*
G02*
X96968000Y-67875999I0J-249999D01*
G01*
G37*
G36*
G01*
X99018000Y-67875999D02*
X99018000Y-68776001D01*
G75*
G02*
X98768001Y-69026000I-249999J0D01*
G01*
X98117999Y-69026000D01*
G75*
G02*
X97868000Y-68776001I0J249999D01*
G01*
X97868000Y-67875999D01*
G75*
G02*
X98117999Y-67626000I249999J0D01*
G01*
X98768001Y-67626000D01*
G75*
G02*
X99018000Y-67875999I0J-249999D01*
G01*
G37*
%TD*%
%TO.C,R7*%
G36*
G01*
X96823000Y-65462999D02*
X96823000Y-66363001D01*
G75*
G02*
X96573001Y-66613000I-249999J0D01*
G01*
X95922999Y-66613000D01*
G75*
G02*
X95673000Y-66363001I0J249999D01*
G01*
X95673000Y-65462999D01*
G75*
G02*
X95922999Y-65213000I249999J0D01*
G01*
X96573001Y-65213000D01*
G75*
G02*
X96823000Y-65462999I0J-249999D01*
G01*
G37*
G36*
G01*
X98873000Y-65462999D02*
X98873000Y-66363001D01*
G75*
G02*
X98623001Y-66613000I-249999J0D01*
G01*
X97972999Y-66613000D01*
G75*
G02*
X97723000Y-66363001I0J249999D01*
G01*
X97723000Y-65462999D01*
G75*
G02*
X97972999Y-65213000I249999J0D01*
G01*
X98623001Y-65213000D01*
G75*
G02*
X98873000Y-65462999I0J-249999D01*
G01*
G37*
%TD*%
%TO.C,R1*%
G36*
G01*
X96775000Y-62799999D02*
X96775000Y-63700001D01*
G75*
G02*
X96525001Y-63950000I-249999J0D01*
G01*
X95874999Y-63950000D01*
G75*
G02*
X95625000Y-63700001I0J249999D01*
G01*
X95625000Y-62799999D01*
G75*
G02*
X95874999Y-62550000I249999J0D01*
G01*
X96525001Y-62550000D01*
G75*
G02*
X96775000Y-62799999I0J-249999D01*
G01*
G37*
G36*
G01*
X98825000Y-62799999D02*
X98825000Y-63700001D01*
G75*
G02*
X98575001Y-63950000I-249999J0D01*
G01*
X97924999Y-63950000D01*
G75*
G02*
X97675000Y-63700001I0J249999D01*
G01*
X97675000Y-62799999D01*
G75*
G02*
X97924999Y-62550000I249999J0D01*
G01*
X98575001Y-62550000D01*
G75*
G02*
X98825000Y-62799999I0J-249999D01*
G01*
G37*
%TD*%
%TO.C,R6*%
G36*
G01*
X103935000Y-114408799D02*
X103935000Y-115308801D01*
G75*
G02*
X103685001Y-115558800I-249999J0D01*
G01*
X103034999Y-115558800D01*
G75*
G02*
X102785000Y-115308801I0J249999D01*
G01*
X102785000Y-114408799D01*
G75*
G02*
X103034999Y-114158800I249999J0D01*
G01*
X103685001Y-114158800D01*
G75*
G02*
X103935000Y-114408799I0J-249999D01*
G01*
G37*
G36*
G01*
X105985000Y-114408799D02*
X105985000Y-115308801D01*
G75*
G02*
X105735001Y-115558800I-249999J0D01*
G01*
X105084999Y-115558800D01*
G75*
G02*
X104835000Y-115308801I0J249999D01*
G01*
X104835000Y-114408799D01*
G75*
G02*
X105084999Y-114158800I249999J0D01*
G01*
X105735001Y-114158800D01*
G75*
G02*
X105985000Y-114408799I0J-249999D01*
G01*
G37*
%TD*%
%TO.C,R4*%
G36*
G01*
X99490000Y-114408799D02*
X99490000Y-115308801D01*
G75*
G02*
X99240001Y-115558800I-249999J0D01*
G01*
X98589999Y-115558800D01*
G75*
G02*
X98340000Y-115308801I0J249999D01*
G01*
X98340000Y-114408799D01*
G75*
G02*
X98589999Y-114158800I249999J0D01*
G01*
X99240001Y-114158800D01*
G75*
G02*
X99490000Y-114408799I0J-249999D01*
G01*
G37*
G36*
G01*
X101540000Y-114408799D02*
X101540000Y-115308801D01*
G75*
G02*
X101290001Y-115558800I-249999J0D01*
G01*
X100639999Y-115558800D01*
G75*
G02*
X100390000Y-115308801I0J249999D01*
G01*
X100390000Y-114408799D01*
G75*
G02*
X100639999Y-114158800I249999J0D01*
G01*
X101290001Y-114158800D01*
G75*
G02*
X101540000Y-114408799I0J-249999D01*
G01*
G37*
%TD*%
%TO.C,R3*%
G36*
G01*
X113968000Y-67494999D02*
X113968000Y-68395001D01*
G75*
G02*
X113718001Y-68645000I-249999J0D01*
G01*
X113067999Y-68645000D01*
G75*
G02*
X112818000Y-68395001I0J249999D01*
G01*
X112818000Y-67494999D01*
G75*
G02*
X113067999Y-67245000I249999J0D01*
G01*
X113718001Y-67245000D01*
G75*
G02*
X113968000Y-67494999I0J-249999D01*
G01*
G37*
G36*
G01*
X116018000Y-67494999D02*
X116018000Y-68395001D01*
G75*
G02*
X115768001Y-68645000I-249999J0D01*
G01*
X115117999Y-68645000D01*
G75*
G02*
X114868000Y-68395001I0J249999D01*
G01*
X114868000Y-67494999D01*
G75*
G02*
X115117999Y-67245000I249999J0D01*
G01*
X115768001Y-67245000D01*
G75*
G02*
X116018000Y-67494999I0J-249999D01*
G01*
G37*
%TD*%
%TO.C,R2*%
G36*
G01*
X113986000Y-63049999D02*
X113986000Y-63950001D01*
G75*
G02*
X113736001Y-64200000I-249999J0D01*
G01*
X113085999Y-64200000D01*
G75*
G02*
X112836000Y-63950001I0J249999D01*
G01*
X112836000Y-63049999D01*
G75*
G02*
X113085999Y-62800000I249999J0D01*
G01*
X113736001Y-62800000D01*
G75*
G02*
X113986000Y-63049999I0J-249999D01*
G01*
G37*
G36*
G01*
X116036000Y-63049999D02*
X116036000Y-63950001D01*
G75*
G02*
X115786001Y-64200000I-249999J0D01*
G01*
X115135999Y-64200000D01*
G75*
G02*
X114886000Y-63950001I0J249999D01*
G01*
X114886000Y-63049999D01*
G75*
G02*
X115135999Y-62800000I249999J0D01*
G01*
X115786001Y-62800000D01*
G75*
G02*
X116036000Y-63049999I0J-249999D01*
G01*
G37*
%TD*%
%TO.C,C7*%
G36*
G01*
X98993800Y-137869900D02*
X100243800Y-137869900D01*
G75*
G02*
X100493800Y-138119900I0J-250000D01*
G01*
X100493800Y-139044900D01*
G75*
G02*
X100243800Y-139294900I-250000J0D01*
G01*
X98993800Y-139294900D01*
G75*
G02*
X98743800Y-139044900I0J250000D01*
G01*
X98743800Y-138119900D01*
G75*
G02*
X98993800Y-137869900I250000J0D01*
G01*
G37*
G36*
G01*
X98993800Y-134894900D02*
X100243800Y-134894900D01*
G75*
G02*
X100493800Y-135144900I0J-250000D01*
G01*
X100493800Y-136069900D01*
G75*
G02*
X100243800Y-136319900I-250000J0D01*
G01*
X98993800Y-136319900D01*
G75*
G02*
X98743800Y-136069900I0J250000D01*
G01*
X98743800Y-135144900D01*
G75*
G02*
X98993800Y-134894900I250000J0D01*
G01*
G37*
%TD*%
%TO.C,C6*%
G36*
G01*
X108341000Y-137463500D02*
X109591000Y-137463500D01*
G75*
G02*
X109841000Y-137713500I0J-250000D01*
G01*
X109841000Y-138638500D01*
G75*
G02*
X109591000Y-138888500I-250000J0D01*
G01*
X108341000Y-138888500D01*
G75*
G02*
X108091000Y-138638500I0J250000D01*
G01*
X108091000Y-137713500D01*
G75*
G02*
X108341000Y-137463500I250000J0D01*
G01*
G37*
G36*
G01*
X108341000Y-134488500D02*
X109591000Y-134488500D01*
G75*
G02*
X109841000Y-134738500I0J-250000D01*
G01*
X109841000Y-135663500D01*
G75*
G02*
X109591000Y-135913500I-250000J0D01*
G01*
X108341000Y-135913500D01*
G75*
G02*
X108091000Y-135663500I0J250000D01*
G01*
X108091000Y-134738500D01*
G75*
G02*
X108341000Y-134488500I250000J0D01*
G01*
G37*
%TD*%
%TO.C,C5*%
G36*
G01*
X119759100Y-83982400D02*
X119759100Y-85232400D01*
G75*
G02*
X119509100Y-85482400I-250000J0D01*
G01*
X118584100Y-85482400D01*
G75*
G02*
X118334100Y-85232400I0J250000D01*
G01*
X118334100Y-83982400D01*
G75*
G02*
X118584100Y-83732400I250000J0D01*
G01*
X119509100Y-83732400D01*
G75*
G02*
X119759100Y-83982400I0J-250000D01*
G01*
G37*
G36*
G01*
X122734100Y-83982400D02*
X122734100Y-85232400D01*
G75*
G02*
X122484100Y-85482400I-250000J0D01*
G01*
X121559100Y-85482400D01*
G75*
G02*
X121309100Y-85232400I0J250000D01*
G01*
X121309100Y-83982400D01*
G75*
G02*
X121559100Y-83732400I250000J0D01*
G01*
X122484100Y-83732400D01*
G75*
G02*
X122734100Y-83982400I0J-250000D01*
G01*
G37*
%TD*%
D10*
%TO.C,U4*%
X123598400Y-134924800D03*
X123598400Y-133654800D03*
X123598400Y-132384800D03*
X123598400Y-131114800D03*
X123598400Y-129844800D03*
X123598400Y-128574800D03*
X123598400Y-127304800D03*
X123598400Y-126034800D03*
X123598400Y-124764800D03*
X123598400Y-123494800D03*
X114198400Y-123494800D03*
X114198400Y-124764800D03*
X114198400Y-126034800D03*
X114198400Y-127304800D03*
X114198400Y-128574800D03*
X114198400Y-129844800D03*
X114198400Y-131114800D03*
X114198400Y-132384800D03*
X114198400Y-133654800D03*
X114198400Y-134924800D03*
%TD*%
%TO.C,C3*%
G36*
G01*
X122625000Y-66537500D02*
X123875000Y-66537500D01*
G75*
G02*
X124125000Y-66787500I0J-250000D01*
G01*
X124125000Y-67712500D01*
G75*
G02*
X123875000Y-67962500I-250000J0D01*
G01*
X122625000Y-67962500D01*
G75*
G02*
X122375000Y-67712500I0J250000D01*
G01*
X122375000Y-66787500D01*
G75*
G02*
X122625000Y-66537500I250000J0D01*
G01*
G37*
G36*
G01*
X122625000Y-63562500D02*
X123875000Y-63562500D01*
G75*
G02*
X124125000Y-63812500I0J-250000D01*
G01*
X124125000Y-64737500D01*
G75*
G02*
X123875000Y-64987500I-250000J0D01*
G01*
X122625000Y-64987500D01*
G75*
G02*
X122375000Y-64737500I0J250000D01*
G01*
X122375000Y-63812500D01*
G75*
G02*
X122625000Y-63562500I250000J0D01*
G01*
G37*
%TD*%
M02*
