%TF.GenerationSoftware,KiCad,Pcbnew,5.1.9+dfsg1-1+deb11u1*%
%TF.CreationDate,2024-10-31T16:52:42-07:00*%
%TF.ProjectId,8051,38303531-2e6b-4696-9361-645f70636258,rev?*%
%TF.SameCoordinates,Original*%
%TF.FileFunction,Legend,Bot*%
%TF.FilePolarity,Positive*%
%FSLAX46Y46*%
G04 Gerber Fmt 4.6, Leading zero omitted, Abs format (unit mm)*
G04 Created by KiCad (PCBNEW 5.1.9+dfsg1-1+deb11u1) date 2024-10-31 16:52:42*
%MOMM*%
%LPD*%
G01*
G04 APERTURE LIST*
%ADD10C,0.127000*%
%ADD11C,0.150000*%
%ADD12C,0.190500*%
%ADD13C,0.120000*%
G04 APERTURE END LIST*
D10*
X125183809Y-122212738D02*
X125153571Y-122182500D01*
X125093095Y-122152261D01*
X124941904Y-122152261D01*
X124881428Y-122182500D01*
X124851190Y-122212738D01*
X124820952Y-122273214D01*
X124820952Y-122333690D01*
X124851190Y-122424404D01*
X125214047Y-122787261D01*
X124820952Y-122787261D01*
X124427857Y-122152261D02*
X124367380Y-122152261D01*
X124306904Y-122182500D01*
X124276666Y-122212738D01*
X124246428Y-122273214D01*
X124216190Y-122394166D01*
X124216190Y-122545357D01*
X124246428Y-122666309D01*
X124276666Y-122726785D01*
X124306904Y-122757023D01*
X124367380Y-122787261D01*
X124427857Y-122787261D01*
X124488333Y-122757023D01*
X124518571Y-122726785D01*
X124548809Y-122666309D01*
X124579047Y-122545357D01*
X124579047Y-122394166D01*
X124548809Y-122273214D01*
X124518571Y-122212738D01*
X124488333Y-122182500D01*
X124427857Y-122152261D01*
D11*
X122611904Y-117297619D02*
X122564285Y-117250000D01*
X122469047Y-117202380D01*
X122230952Y-117202380D01*
X122135714Y-117250000D01*
X122088095Y-117297619D01*
X122040476Y-117392857D01*
X122040476Y-117488095D01*
X122088095Y-117630952D01*
X122659523Y-118202380D01*
X122040476Y-118202380D01*
X121659523Y-117297619D02*
X121611904Y-117250000D01*
X121516666Y-117202380D01*
X121278571Y-117202380D01*
X121183333Y-117250000D01*
X121135714Y-117297619D01*
X121088095Y-117392857D01*
X121088095Y-117488095D01*
X121135714Y-117630952D01*
X121707142Y-118202380D01*
X121088095Y-118202380D01*
D10*
X127796000Y-125012952D02*
X127771809Y-124964571D01*
X127771809Y-124892000D01*
X127796000Y-124819428D01*
X127844380Y-124771047D01*
X127892761Y-124746857D01*
X127989523Y-124722666D01*
X128062095Y-124722666D01*
X128158857Y-124746857D01*
X128207238Y-124771047D01*
X128255619Y-124819428D01*
X128279809Y-124892000D01*
X128279809Y-124940380D01*
X128255619Y-125012952D01*
X128231428Y-125037142D01*
X128062095Y-125037142D01*
X128062095Y-124940380D01*
X128279809Y-125254857D02*
X127771809Y-125254857D01*
X128279809Y-125545142D01*
X127771809Y-125545142D01*
X128279809Y-125787047D02*
X127771809Y-125787047D01*
X127771809Y-125908000D01*
X127796000Y-125980571D01*
X127844380Y-126028952D01*
X127892761Y-126053142D01*
X127989523Y-126077333D01*
X128062095Y-126077333D01*
X128158857Y-126053142D01*
X128207238Y-126028952D01*
X128255619Y-125980571D01*
X128279809Y-125908000D01*
X128279809Y-125787047D01*
D11*
X121573809Y-119704761D02*
X122430952Y-120990476D01*
X121240476Y-120752380D02*
X121240476Y-119752380D01*
X120859523Y-119752380D01*
X120764285Y-119800000D01*
X120716666Y-119847619D01*
X120669047Y-119942857D01*
X120669047Y-120085714D01*
X120716666Y-120180952D01*
X120764285Y-120228571D01*
X120859523Y-120276190D01*
X121240476Y-120276190D01*
X120288095Y-120704761D02*
X120145238Y-120752380D01*
X119907142Y-120752380D01*
X119811904Y-120704761D01*
X119764285Y-120657142D01*
X119716666Y-120561904D01*
X119716666Y-120466666D01*
X119764285Y-120371428D01*
X119811904Y-120323809D01*
X119907142Y-120276190D01*
X120097619Y-120228571D01*
X120192857Y-120180952D01*
X120240476Y-120133333D01*
X120288095Y-120038095D01*
X120288095Y-119942857D01*
X120240476Y-119847619D01*
X120192857Y-119800000D01*
X120097619Y-119752380D01*
X119859523Y-119752380D01*
X119716666Y-119800000D01*
X119288095Y-120228571D02*
X118954761Y-120228571D01*
X118811904Y-120752380D02*
X119288095Y-120752380D01*
X119288095Y-119752380D01*
X118811904Y-119752380D01*
X118383333Y-120752380D02*
X118383333Y-119752380D01*
X117811904Y-120752380D01*
X117811904Y-119752380D01*
X107952380Y-99457142D02*
X106952380Y-99457142D01*
X107666666Y-99790476D01*
X106952380Y-100123809D01*
X107952380Y-100123809D01*
X107952380Y-101028571D02*
X107428571Y-101028571D01*
X107333333Y-100980952D01*
X107285714Y-100885714D01*
X107285714Y-100695238D01*
X107333333Y-100600000D01*
X107904761Y-101028571D02*
X107952380Y-100933333D01*
X107952380Y-100695238D01*
X107904761Y-100600000D01*
X107809523Y-100552380D01*
X107714285Y-100552380D01*
X107619047Y-100600000D01*
X107571428Y-100695238D01*
X107571428Y-100933333D01*
X107523809Y-101028571D01*
X107285714Y-101409523D02*
X107952380Y-101647619D01*
X107285714Y-101885714D02*
X107952380Y-101647619D01*
X108190476Y-101552380D01*
X108238095Y-101504761D01*
X108285714Y-101409523D01*
X107952380Y-102266666D02*
X106952380Y-102266666D01*
X107333333Y-102266666D02*
X107285714Y-102361904D01*
X107285714Y-102552380D01*
X107333333Y-102647619D01*
X107380952Y-102695238D01*
X107476190Y-102742857D01*
X107761904Y-102742857D01*
X107857142Y-102695238D01*
X107904761Y-102647619D01*
X107952380Y-102552380D01*
X107952380Y-102361904D01*
X107904761Y-102266666D01*
X107904761Y-103552380D02*
X107952380Y-103457142D01*
X107952380Y-103266666D01*
X107904761Y-103171428D01*
X107809523Y-103123809D01*
X107428571Y-103123809D01*
X107333333Y-103171428D01*
X107285714Y-103266666D01*
X107285714Y-103457142D01*
X107333333Y-103552380D01*
X107428571Y-103600000D01*
X107523809Y-103600000D01*
X107619047Y-103123809D01*
X107952380Y-104790476D02*
X106952380Y-104790476D01*
X106952380Y-105314285D02*
X107142857Y-105219047D01*
X107952380Y-105742857D02*
X107285714Y-105742857D01*
X107380952Y-105742857D02*
X107333333Y-105790476D01*
X107285714Y-105885714D01*
X107285714Y-106028571D01*
X107333333Y-106123809D01*
X107428571Y-106171428D01*
X107952380Y-106171428D01*
X107428571Y-106171428D02*
X107333333Y-106219047D01*
X107285714Y-106314285D01*
X107285714Y-106457142D01*
X107333333Y-106552380D01*
X107428571Y-106600000D01*
X107952380Y-106600000D01*
X107904761Y-108266666D02*
X107952380Y-108171428D01*
X107952380Y-107980952D01*
X107904761Y-107885714D01*
X107857142Y-107838095D01*
X107761904Y-107790476D01*
X107476190Y-107790476D01*
X107380952Y-107838095D01*
X107333333Y-107885714D01*
X107285714Y-107980952D01*
X107285714Y-108171428D01*
X107333333Y-108266666D01*
X107952380Y-108695238D02*
X107285714Y-108695238D01*
X107476190Y-108695238D02*
X107380952Y-108742857D01*
X107333333Y-108790476D01*
X107285714Y-108885714D01*
X107285714Y-108980952D01*
X107952380Y-109742857D02*
X107428571Y-109742857D01*
X107333333Y-109695238D01*
X107285714Y-109600000D01*
X107285714Y-109409523D01*
X107333333Y-109314285D01*
X107904761Y-109742857D02*
X107952380Y-109647619D01*
X107952380Y-109409523D01*
X107904761Y-109314285D01*
X107809523Y-109266666D01*
X107714285Y-109266666D01*
X107619047Y-109314285D01*
X107571428Y-109409523D01*
X107571428Y-109647619D01*
X107523809Y-109742857D01*
X107285714Y-110123809D02*
X107285714Y-110647619D01*
X107952380Y-110123809D01*
X107952380Y-110647619D01*
X107285714Y-110933333D02*
X107952380Y-111171428D01*
X107285714Y-111409523D02*
X107952380Y-111171428D01*
X108190476Y-111076190D01*
X108238095Y-111028571D01*
X108285714Y-110933333D01*
X107857142Y-111790476D02*
X107904761Y-111838095D01*
X107952380Y-111790476D01*
X107904761Y-111742857D01*
X107857142Y-111790476D01*
X107952380Y-111790476D01*
X107857142Y-112266666D02*
X107904761Y-112314285D01*
X107952380Y-112266666D01*
X107904761Y-112219047D01*
X107857142Y-112266666D01*
X107952380Y-112266666D01*
X107857142Y-112742857D02*
X107904761Y-112790476D01*
X107952380Y-112742857D01*
X107904761Y-112695238D01*
X107857142Y-112742857D01*
X107952380Y-112742857D01*
X101628571Y-77185714D02*
X101628571Y-77519047D01*
X102152380Y-77661904D02*
X102152380Y-77185714D01*
X101152380Y-77185714D01*
X101152380Y-77661904D01*
X101485714Y-77995238D02*
X102152380Y-78233333D01*
X101485714Y-78471428D01*
X102104761Y-79233333D02*
X102152380Y-79138095D01*
X102152380Y-78947619D01*
X102104761Y-78852380D01*
X102009523Y-78804761D01*
X101628571Y-78804761D01*
X101533333Y-78852380D01*
X101485714Y-78947619D01*
X101485714Y-79138095D01*
X101533333Y-79233333D01*
X101628571Y-79280952D01*
X101723809Y-79280952D01*
X101819047Y-78804761D01*
X101485714Y-79709523D02*
X102152380Y-79709523D01*
X101580952Y-79709523D02*
X101533333Y-79757142D01*
X101485714Y-79852380D01*
X101485714Y-79995238D01*
X101533333Y-80090476D01*
X101628571Y-80138095D01*
X102152380Y-80138095D01*
X101485714Y-81280952D02*
X102152380Y-81519047D01*
X101485714Y-81757142D02*
X102152380Y-81519047D01*
X102390476Y-81423809D01*
X102438095Y-81376190D01*
X102485714Y-81280952D01*
X102152380Y-82280952D02*
X102104761Y-82185714D01*
X102057142Y-82138095D01*
X101961904Y-82090476D01*
X101676190Y-82090476D01*
X101580952Y-82138095D01*
X101533333Y-82185714D01*
X101485714Y-82280952D01*
X101485714Y-82423809D01*
X101533333Y-82519047D01*
X101580952Y-82566666D01*
X101676190Y-82614285D01*
X101961904Y-82614285D01*
X102057142Y-82566666D01*
X102104761Y-82519047D01*
X102152380Y-82423809D01*
X102152380Y-82280952D01*
X101485714Y-83471428D02*
X102152380Y-83471428D01*
X101485714Y-83042857D02*
X102009523Y-83042857D01*
X102104761Y-83090476D01*
X102152380Y-83185714D01*
X102152380Y-83328571D01*
X102104761Y-83423809D01*
X102057142Y-83471428D01*
X102152380Y-83947619D02*
X101485714Y-83947619D01*
X101676190Y-83947619D02*
X101580952Y-83995238D01*
X101533333Y-84042857D01*
X101485714Y-84138095D01*
X101485714Y-84233333D01*
X102104761Y-85709523D02*
X102152380Y-85614285D01*
X102152380Y-85423809D01*
X102104761Y-85328571D01*
X102009523Y-85280952D01*
X101628571Y-85280952D01*
X101533333Y-85328571D01*
X101485714Y-85423809D01*
X101485714Y-85614285D01*
X101533333Y-85709523D01*
X101628571Y-85757142D01*
X101723809Y-85757142D01*
X101819047Y-85280952D01*
X102152380Y-86185714D02*
X101485714Y-86185714D01*
X101580952Y-86185714D02*
X101533333Y-86233333D01*
X101485714Y-86328571D01*
X101485714Y-86471428D01*
X101533333Y-86566666D01*
X101628571Y-86614285D01*
X102152380Y-86614285D01*
X101628571Y-86614285D02*
X101533333Y-86661904D01*
X101485714Y-86757142D01*
X101485714Y-86899999D01*
X101533333Y-86995238D01*
X101628571Y-87042857D01*
X102152380Y-87042857D01*
X102152380Y-87661904D02*
X102104761Y-87566666D01*
X102057142Y-87519047D01*
X101961904Y-87471428D01*
X101676190Y-87471428D01*
X101580952Y-87519047D01*
X101533333Y-87566666D01*
X101485714Y-87661904D01*
X101485714Y-87804761D01*
X101533333Y-87899999D01*
X101580952Y-87947619D01*
X101676190Y-87995238D01*
X101961904Y-87995238D01*
X102057142Y-87947619D01*
X102104761Y-87899999D01*
X102152380Y-87804761D01*
X102152380Y-87661904D01*
X101485714Y-88280952D02*
X101485714Y-88661904D01*
X101152380Y-88423809D02*
X102009523Y-88423809D01*
X102104761Y-88471428D01*
X102152380Y-88566666D01*
X102152380Y-88661904D01*
X102152380Y-88995238D02*
X101485714Y-88995238D01*
X101152380Y-88995238D02*
X101200000Y-88947619D01*
X101247619Y-88995238D01*
X101200000Y-89042857D01*
X101152380Y-88995238D01*
X101247619Y-88995238D01*
X102152380Y-89614285D02*
X102104761Y-89519047D01*
X102057142Y-89471428D01*
X101961904Y-89423809D01*
X101676190Y-89423809D01*
X101580952Y-89471428D01*
X101533333Y-89519047D01*
X101485714Y-89614285D01*
X101485714Y-89757142D01*
X101533333Y-89852380D01*
X101580952Y-89899999D01*
X101676190Y-89947619D01*
X101961904Y-89947619D01*
X102057142Y-89899999D01*
X102104761Y-89852380D01*
X102152380Y-89757142D01*
X102152380Y-89614285D01*
X101485714Y-90376190D02*
X102152380Y-90376190D01*
X101580952Y-90376190D02*
X101533333Y-90423809D01*
X101485714Y-90519047D01*
X101485714Y-90661904D01*
X101533333Y-90757142D01*
X101628571Y-90804761D01*
X102152380Y-90804761D01*
X102152380Y-92042857D02*
X101152380Y-92042857D01*
X102152380Y-92471428D02*
X101628571Y-92471428D01*
X101533333Y-92423809D01*
X101485714Y-92328571D01*
X101485714Y-92185714D01*
X101533333Y-92090476D01*
X101580952Y-92042857D01*
X102152380Y-93376190D02*
X101628571Y-93376190D01*
X101533333Y-93328571D01*
X101485714Y-93233333D01*
X101485714Y-93042857D01*
X101533333Y-92947619D01*
X102104761Y-93376190D02*
X102152380Y-93280952D01*
X102152380Y-93042857D01*
X102104761Y-92947619D01*
X102009523Y-92899999D01*
X101914285Y-92899999D01*
X101819047Y-92947619D01*
X101771428Y-93042857D01*
X101771428Y-93280952D01*
X101723809Y-93376190D01*
X102152380Y-94280952D02*
X101152380Y-94280952D01*
X102104761Y-94280952D02*
X102152380Y-94185714D01*
X102152380Y-93995238D01*
X102104761Y-93899999D01*
X102057142Y-93852380D01*
X101961904Y-93804761D01*
X101676190Y-93804761D01*
X101580952Y-93852380D01*
X101533333Y-93899999D01*
X101485714Y-93995238D01*
X101485714Y-94185714D01*
X101533333Y-94280952D01*
X102152380Y-95947619D02*
X101628571Y-95947619D01*
X101533333Y-95899999D01*
X101485714Y-95804761D01*
X101485714Y-95614285D01*
X101533333Y-95519047D01*
X102104761Y-95947619D02*
X102152380Y-95852380D01*
X102152380Y-95614285D01*
X102104761Y-95519047D01*
X102009523Y-95471428D01*
X101914285Y-95471428D01*
X101819047Y-95519047D01*
X101771428Y-95614285D01*
X101771428Y-95852380D01*
X101723809Y-95947619D01*
X101485714Y-96423809D02*
X102152380Y-96423809D01*
X101580952Y-96423809D02*
X101533333Y-96471428D01*
X101485714Y-96566666D01*
X101485714Y-96709523D01*
X101533333Y-96804761D01*
X101628571Y-96852380D01*
X102152380Y-96852380D01*
X102104761Y-98471428D02*
X102152380Y-98376190D01*
X102152380Y-98185714D01*
X102104761Y-98090476D01*
X102009523Y-98042857D01*
X101628571Y-98042857D01*
X101533333Y-98090476D01*
X101485714Y-98185714D01*
X101485714Y-98376190D01*
X101533333Y-98471428D01*
X101628571Y-98519047D01*
X101723809Y-98519047D01*
X101819047Y-98042857D01*
X102104761Y-99376190D02*
X102152380Y-99280952D01*
X102152380Y-99090476D01*
X102104761Y-98995238D01*
X102057142Y-98947619D01*
X101961904Y-98899999D01*
X101676190Y-98899999D01*
X101580952Y-98947619D01*
X101533333Y-98995238D01*
X101485714Y-99090476D01*
X101485714Y-99280952D01*
X101533333Y-99376190D01*
X102152380Y-99804761D02*
X101152380Y-99804761D01*
X102152380Y-100233333D02*
X101628571Y-100233333D01*
X101533333Y-100185714D01*
X101485714Y-100090476D01*
X101485714Y-99947619D01*
X101533333Y-99852380D01*
X101580952Y-99804761D01*
X102152380Y-100852380D02*
X102104761Y-100757142D01*
X102057142Y-100709523D01*
X101961904Y-100661904D01*
X101676190Y-100661904D01*
X101580952Y-100709523D01*
X101533333Y-100757142D01*
X101485714Y-100852380D01*
X101485714Y-100995238D01*
X101533333Y-101090476D01*
X101580952Y-101138095D01*
X101676190Y-101185714D01*
X101961904Y-101185714D01*
X102057142Y-101138095D01*
X102104761Y-101090476D01*
X102152380Y-100995238D01*
X102152380Y-100852380D01*
X102057142Y-101614285D02*
X102104761Y-101661904D01*
X102152380Y-101614285D01*
X102104761Y-101566666D01*
X102057142Y-101614285D01*
X102152380Y-101614285D01*
X99152380Y-72233333D02*
X99152380Y-72804761D01*
X100152380Y-72519047D02*
X99152380Y-72519047D01*
X100152380Y-73138095D02*
X99152380Y-73138095D01*
X100152380Y-73566666D02*
X99628571Y-73566666D01*
X99533333Y-73519047D01*
X99485714Y-73423809D01*
X99485714Y-73280952D01*
X99533333Y-73185714D01*
X99580952Y-73138095D01*
X100104761Y-74423809D02*
X100152380Y-74328571D01*
X100152380Y-74138095D01*
X100104761Y-74042857D01*
X100009523Y-73995238D01*
X99628571Y-73995238D01*
X99533333Y-74042857D01*
X99485714Y-74138095D01*
X99485714Y-74328571D01*
X99533333Y-74423809D01*
X99628571Y-74471428D01*
X99723809Y-74471428D01*
X99819047Y-73995238D01*
X100152380Y-74900000D02*
X99485714Y-74900000D01*
X99676190Y-74900000D02*
X99580952Y-74947619D01*
X99533333Y-74995238D01*
X99485714Y-75090476D01*
X99485714Y-75185714D01*
X100104761Y-75900000D02*
X100152380Y-75804761D01*
X100152380Y-75614285D01*
X100104761Y-75519047D01*
X100009523Y-75471428D01*
X99628571Y-75471428D01*
X99533333Y-75519047D01*
X99485714Y-75614285D01*
X99485714Y-75804761D01*
X99533333Y-75900000D01*
X99628571Y-75947619D01*
X99723809Y-75947619D01*
X99819047Y-75471428D01*
X99485714Y-77042857D02*
X100152380Y-77233333D01*
X99676190Y-77423809D01*
X100152380Y-77614285D01*
X99485714Y-77804761D01*
X100152380Y-78614285D02*
X99628571Y-78614285D01*
X99533333Y-78566666D01*
X99485714Y-78471428D01*
X99485714Y-78280952D01*
X99533333Y-78185714D01*
X100104761Y-78614285D02*
X100152380Y-78519047D01*
X100152380Y-78280952D01*
X100104761Y-78185714D01*
X100009523Y-78138095D01*
X99914285Y-78138095D01*
X99819047Y-78185714D01*
X99771428Y-78280952D01*
X99771428Y-78519047D01*
X99723809Y-78614285D01*
X100104761Y-79042857D02*
X100152380Y-79138095D01*
X100152380Y-79328571D01*
X100104761Y-79423809D01*
X100009523Y-79471428D01*
X99961904Y-79471428D01*
X99866666Y-79423809D01*
X99819047Y-79328571D01*
X99819047Y-79185714D01*
X99771428Y-79090476D01*
X99676190Y-79042857D01*
X99628571Y-79042857D01*
X99533333Y-79090476D01*
X99485714Y-79185714D01*
X99485714Y-79328571D01*
X99533333Y-79423809D01*
X100104761Y-80614285D02*
X100152380Y-80709523D01*
X100152380Y-80900000D01*
X100104761Y-80995238D01*
X100009523Y-81042857D01*
X99961904Y-81042857D01*
X99866666Y-80995238D01*
X99819047Y-80900000D01*
X99819047Y-80757142D01*
X99771428Y-80661904D01*
X99676190Y-80614285D01*
X99628571Y-80614285D01*
X99533333Y-80661904D01*
X99485714Y-80757142D01*
X99485714Y-80900000D01*
X99533333Y-80995238D01*
X100152380Y-81614285D02*
X100104761Y-81519047D01*
X100057142Y-81471428D01*
X99961904Y-81423809D01*
X99676190Y-81423809D01*
X99580952Y-81471428D01*
X99533333Y-81519047D01*
X99485714Y-81614285D01*
X99485714Y-81757142D01*
X99533333Y-81852380D01*
X99580952Y-81900000D01*
X99676190Y-81947619D01*
X99961904Y-81947619D01*
X100057142Y-81900000D01*
X100104761Y-81852380D01*
X100152380Y-81757142D01*
X100152380Y-81614285D01*
X100152380Y-82376190D02*
X99485714Y-82376190D01*
X99580952Y-82376190D02*
X99533333Y-82423809D01*
X99485714Y-82519047D01*
X99485714Y-82661904D01*
X99533333Y-82757142D01*
X99628571Y-82804761D01*
X100152380Y-82804761D01*
X99628571Y-82804761D02*
X99533333Y-82852380D01*
X99485714Y-82947619D01*
X99485714Y-83090476D01*
X99533333Y-83185714D01*
X99628571Y-83233333D01*
X100152380Y-83233333D01*
X100104761Y-84090476D02*
X100152380Y-83995238D01*
X100152380Y-83804761D01*
X100104761Y-83709523D01*
X100009523Y-83661904D01*
X99628571Y-83661904D01*
X99533333Y-83709523D01*
X99485714Y-83804761D01*
X99485714Y-83995238D01*
X99533333Y-84090476D01*
X99628571Y-84138095D01*
X99723809Y-84138095D01*
X99819047Y-83661904D01*
X99485714Y-84423809D02*
X99485714Y-84804761D01*
X99152380Y-84566666D02*
X100009523Y-84566666D01*
X100104761Y-84614285D01*
X100152380Y-84709523D01*
X100152380Y-84804761D01*
X100152380Y-85138095D02*
X99152380Y-85138095D01*
X100152380Y-85566666D02*
X99628571Y-85566666D01*
X99533333Y-85519047D01*
X99485714Y-85423809D01*
X99485714Y-85280952D01*
X99533333Y-85185714D01*
X99580952Y-85138095D01*
X100152380Y-86042857D02*
X99485714Y-86042857D01*
X99152380Y-86042857D02*
X99200000Y-85995238D01*
X99247619Y-86042857D01*
X99200000Y-86090476D01*
X99152380Y-86042857D01*
X99247619Y-86042857D01*
X99485714Y-86519047D02*
X100152380Y-86519047D01*
X99580952Y-86519047D02*
X99533333Y-86566666D01*
X99485714Y-86661904D01*
X99485714Y-86804761D01*
X99533333Y-86900000D01*
X99628571Y-86947619D01*
X100152380Y-86947619D01*
X99485714Y-87852380D02*
X100295238Y-87852380D01*
X100390476Y-87804761D01*
X100438095Y-87757142D01*
X100485714Y-87661904D01*
X100485714Y-87519047D01*
X100438095Y-87423809D01*
X100104761Y-87852380D02*
X100152380Y-87757142D01*
X100152380Y-87566666D01*
X100104761Y-87471428D01*
X100057142Y-87423809D01*
X99961904Y-87376190D01*
X99676190Y-87376190D01*
X99580952Y-87423809D01*
X99533333Y-87471428D01*
X99485714Y-87566666D01*
X99485714Y-87757142D01*
X99533333Y-87852380D01*
X100104761Y-89042857D02*
X100152380Y-89138095D01*
X100152380Y-89328571D01*
X100104761Y-89423809D01*
X100009523Y-89471428D01*
X99961904Y-89471428D01*
X99866666Y-89423809D01*
X99819047Y-89328571D01*
X99819047Y-89185714D01*
X99771428Y-89090476D01*
X99676190Y-89042857D01*
X99628571Y-89042857D01*
X99533333Y-89090476D01*
X99485714Y-89185714D01*
X99485714Y-89328571D01*
X99533333Y-89423809D01*
X100152380Y-90042857D02*
X100104761Y-89947619D01*
X100057142Y-89899999D01*
X99961904Y-89852380D01*
X99676190Y-89852380D01*
X99580952Y-89899999D01*
X99533333Y-89947619D01*
X99485714Y-90042857D01*
X99485714Y-90185714D01*
X99533333Y-90280952D01*
X99580952Y-90328571D01*
X99676190Y-90376190D01*
X99961904Y-90376190D01*
X100057142Y-90328571D01*
X100104761Y-90280952D01*
X100152380Y-90185714D01*
X100152380Y-90042857D01*
X99485714Y-91566666D02*
X100485714Y-91566666D01*
X99533333Y-91566666D02*
X99485714Y-91661904D01*
X99485714Y-91852380D01*
X99533333Y-91947619D01*
X99580952Y-91995238D01*
X99676190Y-92042857D01*
X99961904Y-92042857D01*
X100057142Y-91995238D01*
X100104761Y-91947619D01*
X100152380Y-91852380D01*
X100152380Y-91661904D01*
X100104761Y-91566666D01*
X100152380Y-92614285D02*
X100104761Y-92519047D01*
X100009523Y-92471428D01*
X99152380Y-92471428D01*
X100104761Y-93376190D02*
X100152380Y-93280952D01*
X100152380Y-93090476D01*
X100104761Y-92995238D01*
X100009523Y-92947619D01*
X99628571Y-92947619D01*
X99533333Y-92995238D01*
X99485714Y-93090476D01*
X99485714Y-93280952D01*
X99533333Y-93376190D01*
X99628571Y-93423809D01*
X99723809Y-93423809D01*
X99819047Y-92947619D01*
X100152380Y-94280952D02*
X99628571Y-94280952D01*
X99533333Y-94233333D01*
X99485714Y-94138095D01*
X99485714Y-93947619D01*
X99533333Y-93852380D01*
X100104761Y-94280952D02*
X100152380Y-94185714D01*
X100152380Y-93947619D01*
X100104761Y-93852380D01*
X100009523Y-93804761D01*
X99914285Y-93804761D01*
X99819047Y-93852380D01*
X99771428Y-93947619D01*
X99771428Y-94185714D01*
X99723809Y-94280952D01*
X100104761Y-94709523D02*
X100152380Y-94804761D01*
X100152380Y-94995238D01*
X100104761Y-95090476D01*
X100009523Y-95138095D01*
X99961904Y-95138095D01*
X99866666Y-95090476D01*
X99819047Y-94995238D01*
X99819047Y-94852380D01*
X99771428Y-94757142D01*
X99676190Y-94709523D01*
X99628571Y-94709523D01*
X99533333Y-94757142D01*
X99485714Y-94852380D01*
X99485714Y-94995238D01*
X99533333Y-95090476D01*
X100152380Y-95995238D02*
X99628571Y-95995238D01*
X99533333Y-95947619D01*
X99485714Y-95852380D01*
X99485714Y-95661904D01*
X99533333Y-95566666D01*
X100104761Y-95995238D02*
X100152380Y-95899999D01*
X100152380Y-95661904D01*
X100104761Y-95566666D01*
X100009523Y-95519047D01*
X99914285Y-95519047D01*
X99819047Y-95566666D01*
X99771428Y-95661904D01*
X99771428Y-95899999D01*
X99723809Y-95995238D01*
X99485714Y-96471428D02*
X100152380Y-96471428D01*
X99580952Y-96471428D02*
X99533333Y-96519047D01*
X99485714Y-96614285D01*
X99485714Y-96757142D01*
X99533333Y-96852380D01*
X99628571Y-96899999D01*
X100152380Y-96899999D01*
X99485714Y-97233333D02*
X99485714Y-97614285D01*
X99152380Y-97376190D02*
X100009523Y-97376190D01*
X100104761Y-97423809D01*
X100152380Y-97519047D01*
X100152380Y-97614285D01*
X100152380Y-99138095D02*
X99628571Y-99138095D01*
X99533333Y-99090476D01*
X99485714Y-98995238D01*
X99485714Y-98804761D01*
X99533333Y-98709523D01*
X100104761Y-99138095D02*
X100152380Y-99042857D01*
X100152380Y-98804761D01*
X100104761Y-98709523D01*
X100009523Y-98661904D01*
X99914285Y-98661904D01*
X99819047Y-98709523D01*
X99771428Y-98804761D01*
X99771428Y-99042857D01*
X99723809Y-99138095D01*
X100152380Y-99614285D02*
X99152380Y-99614285D01*
X99533333Y-99614285D02*
X99485714Y-99709523D01*
X99485714Y-99899999D01*
X99533333Y-99995238D01*
X99580952Y-100042857D01*
X99676190Y-100090476D01*
X99961904Y-100090476D01*
X100057142Y-100042857D01*
X100104761Y-99995238D01*
X100152380Y-99899999D01*
X100152380Y-99709523D01*
X100104761Y-99614285D01*
X100152380Y-100661904D02*
X100104761Y-100566666D01*
X100057142Y-100519047D01*
X99961904Y-100471428D01*
X99676190Y-100471428D01*
X99580952Y-100519047D01*
X99533333Y-100566666D01*
X99485714Y-100661904D01*
X99485714Y-100804761D01*
X99533333Y-100899999D01*
X99580952Y-100947619D01*
X99676190Y-100995238D01*
X99961904Y-100995238D01*
X100057142Y-100947619D01*
X100104761Y-100899999D01*
X100152380Y-100804761D01*
X100152380Y-100661904D01*
X99485714Y-101852380D02*
X100152380Y-101852380D01*
X99485714Y-101423809D02*
X100009523Y-101423809D01*
X100104761Y-101471428D01*
X100152380Y-101566666D01*
X100152380Y-101709523D01*
X100104761Y-101804761D01*
X100057142Y-101852380D01*
X99485714Y-102185714D02*
X99485714Y-102566666D01*
X99152380Y-102328571D02*
X100009523Y-102328571D01*
X100104761Y-102376190D01*
X100152380Y-102471428D01*
X100152380Y-102566666D01*
X99485714Y-103519047D02*
X99485714Y-103899999D01*
X99152380Y-103661904D02*
X100009523Y-103661904D01*
X100104761Y-103709523D01*
X100152380Y-103804761D01*
X100152380Y-103899999D01*
X100152380Y-104233333D02*
X99152380Y-104233333D01*
X100152380Y-104661904D02*
X99628571Y-104661904D01*
X99533333Y-104614285D01*
X99485714Y-104519047D01*
X99485714Y-104376190D01*
X99533333Y-104280952D01*
X99580952Y-104233333D01*
X100152380Y-105566666D02*
X99628571Y-105566666D01*
X99533333Y-105519047D01*
X99485714Y-105423809D01*
X99485714Y-105233333D01*
X99533333Y-105138095D01*
X100104761Y-105566666D02*
X100152380Y-105471428D01*
X100152380Y-105233333D01*
X100104761Y-105138095D01*
X100009523Y-105090476D01*
X99914285Y-105090476D01*
X99819047Y-105138095D01*
X99771428Y-105233333D01*
X99771428Y-105471428D01*
X99723809Y-105566666D01*
X99485714Y-105899999D02*
X99485714Y-106280952D01*
X99152380Y-106042857D02*
X100009523Y-106042857D01*
X100104761Y-106090476D01*
X100152380Y-106185714D01*
X100152380Y-106280952D01*
X99485714Y-107376190D02*
X100485714Y-107376190D01*
X99533333Y-107376190D02*
X99485714Y-107471428D01*
X99485714Y-107661904D01*
X99533333Y-107757142D01*
X99580952Y-107804761D01*
X99676190Y-107852380D01*
X99961904Y-107852380D01*
X100057142Y-107804761D01*
X100104761Y-107757142D01*
X100152380Y-107661904D01*
X100152380Y-107471428D01*
X100104761Y-107376190D01*
X100152380Y-108423809D02*
X100104761Y-108328571D01*
X100009523Y-108280952D01*
X99152380Y-108280952D01*
X100152380Y-109233333D02*
X99628571Y-109233333D01*
X99533333Y-109185714D01*
X99485714Y-109090476D01*
X99485714Y-108899999D01*
X99533333Y-108804761D01*
X100104761Y-109233333D02*
X100152380Y-109138095D01*
X100152380Y-108899999D01*
X100104761Y-108804761D01*
X100009523Y-108757142D01*
X99914285Y-108757142D01*
X99819047Y-108804761D01*
X99771428Y-108899999D01*
X99771428Y-109138095D01*
X99723809Y-109233333D01*
X100104761Y-110138095D02*
X100152380Y-110042857D01*
X100152380Y-109852380D01*
X100104761Y-109757142D01*
X100057142Y-109709523D01*
X99961904Y-109661904D01*
X99676190Y-109661904D01*
X99580952Y-109709523D01*
X99533333Y-109757142D01*
X99485714Y-109852380D01*
X99485714Y-110042857D01*
X99533333Y-110138095D01*
X100104761Y-110947619D02*
X100152380Y-110852380D01*
X100152380Y-110661904D01*
X100104761Y-110566666D01*
X100009523Y-110519047D01*
X99628571Y-110519047D01*
X99533333Y-110566666D01*
X99485714Y-110661904D01*
X99485714Y-110852380D01*
X99533333Y-110947619D01*
X99628571Y-110995238D01*
X99723809Y-110995238D01*
X99819047Y-110519047D01*
X100104761Y-111471428D02*
X100152380Y-111471428D01*
X100247619Y-111423809D01*
X100295238Y-111376190D01*
X104252380Y-91528571D02*
X103728571Y-91528571D01*
X103633333Y-91480952D01*
X103585714Y-91385714D01*
X103585714Y-91195238D01*
X103633333Y-91100000D01*
X104204761Y-91528571D02*
X104252380Y-91433333D01*
X104252380Y-91195238D01*
X104204761Y-91100000D01*
X104109523Y-91052380D01*
X104014285Y-91052380D01*
X103919047Y-91100000D01*
X103871428Y-91195238D01*
X103871428Y-91433333D01*
X103823809Y-91528571D01*
X103585714Y-92004761D02*
X104252380Y-92004761D01*
X103680952Y-92004761D02*
X103633333Y-92052380D01*
X103585714Y-92147619D01*
X103585714Y-92290476D01*
X103633333Y-92385714D01*
X103728571Y-92433333D01*
X104252380Y-92433333D01*
X104252380Y-93338095D02*
X103252380Y-93338095D01*
X104204761Y-93338095D02*
X104252380Y-93242857D01*
X104252380Y-93052380D01*
X104204761Y-92957142D01*
X104157142Y-92909523D01*
X104061904Y-92861904D01*
X103776190Y-92861904D01*
X103680952Y-92909523D01*
X103633333Y-92957142D01*
X103585714Y-93052380D01*
X103585714Y-93242857D01*
X103633333Y-93338095D01*
X104204761Y-94528571D02*
X104252380Y-94623809D01*
X104252380Y-94814285D01*
X104204761Y-94909523D01*
X104109523Y-94957142D01*
X104061904Y-94957142D01*
X103966666Y-94909523D01*
X103919047Y-94814285D01*
X103919047Y-94671428D01*
X103871428Y-94576190D01*
X103776190Y-94528571D01*
X103728571Y-94528571D01*
X103633333Y-94576190D01*
X103585714Y-94671428D01*
X103585714Y-94814285D01*
X103633333Y-94909523D01*
X104252380Y-95528571D02*
X104204761Y-95433333D01*
X104157142Y-95385714D01*
X104061904Y-95338095D01*
X103776190Y-95338095D01*
X103680952Y-95385714D01*
X103633333Y-95433333D01*
X103585714Y-95528571D01*
X103585714Y-95671428D01*
X103633333Y-95766666D01*
X103680952Y-95814285D01*
X103776190Y-95861904D01*
X104061904Y-95861904D01*
X104157142Y-95814285D01*
X104204761Y-95766666D01*
X104252380Y-95671428D01*
X104252380Y-95528571D01*
X104252380Y-97052380D02*
X103585714Y-97052380D01*
X103680952Y-97052380D02*
X103633333Y-97100000D01*
X103585714Y-97195238D01*
X103585714Y-97338095D01*
X103633333Y-97433333D01*
X103728571Y-97480952D01*
X104252380Y-97480952D01*
X103728571Y-97480952D02*
X103633333Y-97528571D01*
X103585714Y-97623809D01*
X103585714Y-97766666D01*
X103633333Y-97861904D01*
X103728571Y-97909523D01*
X104252380Y-97909523D01*
X103585714Y-98814285D02*
X104252380Y-98814285D01*
X103585714Y-98385714D02*
X104109523Y-98385714D01*
X104204761Y-98433333D01*
X104252380Y-98528571D01*
X104252380Y-98671428D01*
X104204761Y-98766666D01*
X104157142Y-98814285D01*
X104204761Y-99719047D02*
X104252380Y-99623809D01*
X104252380Y-99433333D01*
X104204761Y-99338095D01*
X104157142Y-99290476D01*
X104061904Y-99242857D01*
X103776190Y-99242857D01*
X103680952Y-99290476D01*
X103633333Y-99338095D01*
X103585714Y-99433333D01*
X103585714Y-99623809D01*
X103633333Y-99719047D01*
X104252380Y-100147619D02*
X103252380Y-100147619D01*
X104252380Y-100576190D02*
X103728571Y-100576190D01*
X103633333Y-100528571D01*
X103585714Y-100433333D01*
X103585714Y-100290476D01*
X103633333Y-100195238D01*
X103680952Y-100147619D01*
X104204761Y-101766666D02*
X104252380Y-101861904D01*
X104252380Y-102052380D01*
X104204761Y-102147619D01*
X104109523Y-102195238D01*
X104061904Y-102195238D01*
X103966666Y-102147619D01*
X103919047Y-102052380D01*
X103919047Y-101909523D01*
X103871428Y-101814285D01*
X103776190Y-101766666D01*
X103728571Y-101766666D01*
X103633333Y-101814285D01*
X103585714Y-101909523D01*
X103585714Y-102052380D01*
X103633333Y-102147619D01*
X103585714Y-102623809D02*
X104585714Y-102623809D01*
X103633333Y-102623809D02*
X103585714Y-102719047D01*
X103585714Y-102909523D01*
X103633333Y-103004761D01*
X103680952Y-103052380D01*
X103776190Y-103100000D01*
X104061904Y-103100000D01*
X104157142Y-103052380D01*
X104204761Y-103004761D01*
X104252380Y-102909523D01*
X104252380Y-102719047D01*
X104204761Y-102623809D01*
X104252380Y-103957142D02*
X103728571Y-103957142D01*
X103633333Y-103909523D01*
X103585714Y-103814285D01*
X103585714Y-103623809D01*
X103633333Y-103528571D01*
X104204761Y-103957142D02*
X104252380Y-103861904D01*
X104252380Y-103623809D01*
X104204761Y-103528571D01*
X104109523Y-103480952D01*
X104014285Y-103480952D01*
X103919047Y-103528571D01*
X103871428Y-103623809D01*
X103871428Y-103861904D01*
X103823809Y-103957142D01*
X104204761Y-104861904D02*
X104252380Y-104766666D01*
X104252380Y-104576190D01*
X104204761Y-104480952D01*
X104157142Y-104433333D01*
X104061904Y-104385714D01*
X103776190Y-104385714D01*
X103680952Y-104433333D01*
X103633333Y-104480952D01*
X103585714Y-104576190D01*
X103585714Y-104766666D01*
X103633333Y-104861904D01*
X104204761Y-105671428D02*
X104252380Y-105576190D01*
X104252380Y-105385714D01*
X104204761Y-105290476D01*
X104109523Y-105242857D01*
X103728571Y-105242857D01*
X103633333Y-105290476D01*
X103585714Y-105385714D01*
X103585714Y-105576190D01*
X103633333Y-105671428D01*
X103728571Y-105719047D01*
X103823809Y-105719047D01*
X103919047Y-105242857D01*
X104157142Y-106147619D02*
X104204761Y-106195238D01*
X104252380Y-106147619D01*
X104204761Y-106100000D01*
X104157142Y-106147619D01*
X104252380Y-106147619D01*
X104157142Y-106623809D02*
X104204761Y-106671428D01*
X104252380Y-106623809D01*
X104204761Y-106576190D01*
X104157142Y-106623809D01*
X104252380Y-106623809D01*
X104157142Y-107100000D02*
X104204761Y-107147619D01*
X104252380Y-107100000D01*
X104204761Y-107052380D01*
X104157142Y-107100000D01*
X104252380Y-107100000D01*
X98152380Y-78923809D02*
X97152380Y-78923809D01*
X98152380Y-80161904D02*
X97485714Y-80161904D01*
X97676190Y-80161904D02*
X97580952Y-80209523D01*
X97533333Y-80257142D01*
X97485714Y-80352380D01*
X97485714Y-80447619D01*
X98104761Y-81161904D02*
X98152380Y-81066666D01*
X98152380Y-80876190D01*
X98104761Y-80780952D01*
X98009523Y-80733333D01*
X97628571Y-80733333D01*
X97533333Y-80780952D01*
X97485714Y-80876190D01*
X97485714Y-81066666D01*
X97533333Y-81161904D01*
X97628571Y-81209523D01*
X97723809Y-81209523D01*
X97819047Y-80733333D01*
X98152380Y-81638095D02*
X97485714Y-81638095D01*
X97580952Y-81638095D02*
X97533333Y-81685714D01*
X97485714Y-81780952D01*
X97485714Y-81923809D01*
X97533333Y-82019047D01*
X97628571Y-82066666D01*
X98152380Y-82066666D01*
X97628571Y-82066666D02*
X97533333Y-82114285D01*
X97485714Y-82209523D01*
X97485714Y-82352380D01*
X97533333Y-82447619D01*
X97628571Y-82495238D01*
X98152380Y-82495238D01*
X98104761Y-83352380D02*
X98152380Y-83257142D01*
X98152380Y-83066666D01*
X98104761Y-82971428D01*
X98009523Y-82923809D01*
X97628571Y-82923809D01*
X97533333Y-82971428D01*
X97485714Y-83066666D01*
X97485714Y-83257142D01*
X97533333Y-83352380D01*
X97628571Y-83400000D01*
X97723809Y-83400000D01*
X97819047Y-82923809D01*
X98152380Y-83828571D02*
X97485714Y-83828571D01*
X97580952Y-83828571D02*
X97533333Y-83876190D01*
X97485714Y-83971428D01*
X97485714Y-84114285D01*
X97533333Y-84209523D01*
X97628571Y-84257142D01*
X98152380Y-84257142D01*
X97628571Y-84257142D02*
X97533333Y-84304761D01*
X97485714Y-84400000D01*
X97485714Y-84542857D01*
X97533333Y-84638095D01*
X97628571Y-84685714D01*
X98152380Y-84685714D01*
X98152380Y-85161904D02*
X97152380Y-85161904D01*
X97533333Y-85161904D02*
X97485714Y-85257142D01*
X97485714Y-85447619D01*
X97533333Y-85542857D01*
X97580952Y-85590476D01*
X97676190Y-85638095D01*
X97961904Y-85638095D01*
X98057142Y-85590476D01*
X98104761Y-85542857D01*
X98152380Y-85447619D01*
X98152380Y-85257142D01*
X98104761Y-85161904D01*
X98104761Y-86447619D02*
X98152380Y-86352380D01*
X98152380Y-86161904D01*
X98104761Y-86066666D01*
X98009523Y-86019047D01*
X97628571Y-86019047D01*
X97533333Y-86066666D01*
X97485714Y-86161904D01*
X97485714Y-86352380D01*
X97533333Y-86447619D01*
X97628571Y-86495238D01*
X97723809Y-86495238D01*
X97819047Y-86019047D01*
X98152380Y-86923809D02*
X97485714Y-86923809D01*
X97676190Y-86923809D02*
X97580952Y-86971428D01*
X97533333Y-87019047D01*
X97485714Y-87114285D01*
X97485714Y-87209523D01*
X98104761Y-87590476D02*
X98152380Y-87590476D01*
X98247619Y-87542857D01*
X98295238Y-87495238D01*
X98152380Y-88780952D02*
X97152380Y-88780952D01*
X98152380Y-90019047D02*
X97485714Y-90019047D01*
X97676190Y-90019047D02*
X97580952Y-90066666D01*
X97533333Y-90114285D01*
X97485714Y-90209523D01*
X97485714Y-90304761D01*
X98104761Y-91019047D02*
X98152380Y-90923809D01*
X98152380Y-90733333D01*
X98104761Y-90638095D01*
X98009523Y-90590476D01*
X97628571Y-90590476D01*
X97533333Y-90638095D01*
X97485714Y-90733333D01*
X97485714Y-90923809D01*
X97533333Y-91019047D01*
X97628571Y-91066666D01*
X97723809Y-91066666D01*
X97819047Y-90590476D01*
X98152380Y-91495238D02*
X97485714Y-91495238D01*
X97580952Y-91495238D02*
X97533333Y-91542857D01*
X97485714Y-91638095D01*
X97485714Y-91780952D01*
X97533333Y-91876190D01*
X97628571Y-91923809D01*
X98152380Y-91923809D01*
X97628571Y-91923809D02*
X97533333Y-91971428D01*
X97485714Y-92066666D01*
X97485714Y-92209523D01*
X97533333Y-92304761D01*
X97628571Y-92352380D01*
X98152380Y-92352380D01*
X98104761Y-93209523D02*
X98152380Y-93114285D01*
X98152380Y-92923809D01*
X98104761Y-92828571D01*
X98009523Y-92780952D01*
X97628571Y-92780952D01*
X97533333Y-92828571D01*
X97485714Y-92923809D01*
X97485714Y-93114285D01*
X97533333Y-93209523D01*
X97628571Y-93257142D01*
X97723809Y-93257142D01*
X97819047Y-92780952D01*
X98152380Y-93685714D02*
X97485714Y-93685714D01*
X97580952Y-93685714D02*
X97533333Y-93733333D01*
X97485714Y-93828571D01*
X97485714Y-93971428D01*
X97533333Y-94066666D01*
X97628571Y-94114285D01*
X98152380Y-94114285D01*
X97628571Y-94114285D02*
X97533333Y-94161904D01*
X97485714Y-94257142D01*
X97485714Y-94400000D01*
X97533333Y-94495238D01*
X97628571Y-94542857D01*
X98152380Y-94542857D01*
X98152380Y-95019047D02*
X97152380Y-95019047D01*
X97533333Y-95019047D02*
X97485714Y-95114285D01*
X97485714Y-95304761D01*
X97533333Y-95400000D01*
X97580952Y-95447619D01*
X97676190Y-95495238D01*
X97961904Y-95495238D01*
X98057142Y-95447619D01*
X98104761Y-95400000D01*
X98152380Y-95304761D01*
X98152380Y-95114285D01*
X98104761Y-95019047D01*
X98104761Y-96304761D02*
X98152380Y-96209523D01*
X98152380Y-96019047D01*
X98104761Y-95923809D01*
X98009523Y-95876190D01*
X97628571Y-95876190D01*
X97533333Y-95923809D01*
X97485714Y-96019047D01*
X97485714Y-96209523D01*
X97533333Y-96304761D01*
X97628571Y-96352380D01*
X97723809Y-96352380D01*
X97819047Y-95876190D01*
X98152380Y-96780952D02*
X97485714Y-96780952D01*
X97676190Y-96780952D02*
X97580952Y-96828571D01*
X97533333Y-96876190D01*
X97485714Y-96971428D01*
X97485714Y-97066666D01*
X97485714Y-98066666D02*
X98152380Y-98257142D01*
X97676190Y-98447619D01*
X98152380Y-98638095D01*
X97485714Y-98828571D01*
X98152380Y-99209523D02*
X97152380Y-99209523D01*
X98152380Y-99638095D02*
X97628571Y-99638095D01*
X97533333Y-99590476D01*
X97485714Y-99495238D01*
X97485714Y-99352380D01*
X97533333Y-99257142D01*
X97580952Y-99209523D01*
X98104761Y-100495238D02*
X98152380Y-100400000D01*
X98152380Y-100209523D01*
X98104761Y-100114285D01*
X98009523Y-100066666D01*
X97628571Y-100066666D01*
X97533333Y-100114285D01*
X97485714Y-100209523D01*
X97485714Y-100400000D01*
X97533333Y-100495238D01*
X97628571Y-100542857D01*
X97723809Y-100542857D01*
X97819047Y-100066666D01*
X97485714Y-100971428D02*
X98152380Y-100971428D01*
X97580952Y-100971428D02*
X97533333Y-101019047D01*
X97485714Y-101114285D01*
X97485714Y-101257142D01*
X97533333Y-101352380D01*
X97628571Y-101400000D01*
X98152380Y-101400000D01*
X98152380Y-102638095D02*
X97152380Y-102638095D01*
X98152380Y-104019047D02*
X98104761Y-103923809D01*
X98009523Y-103876190D01*
X97152380Y-103876190D01*
X98152380Y-104542857D02*
X98104761Y-104447619D01*
X98057142Y-104400000D01*
X97961904Y-104352380D01*
X97676190Y-104352380D01*
X97580952Y-104400000D01*
X97533333Y-104447619D01*
X97485714Y-104542857D01*
X97485714Y-104685714D01*
X97533333Y-104780952D01*
X97580952Y-104828571D01*
X97676190Y-104876190D01*
X97961904Y-104876190D01*
X98057142Y-104828571D01*
X98104761Y-104780952D01*
X98152380Y-104685714D01*
X98152380Y-104542857D01*
X98104761Y-105257142D02*
X98152380Y-105352380D01*
X98152380Y-105542857D01*
X98104761Y-105638095D01*
X98009523Y-105685714D01*
X97961904Y-105685714D01*
X97866666Y-105638095D01*
X97819047Y-105542857D01*
X97819047Y-105400000D01*
X97771428Y-105304761D01*
X97676190Y-105257142D01*
X97628571Y-105257142D01*
X97533333Y-105304761D01*
X97485714Y-105400000D01*
X97485714Y-105542857D01*
X97533333Y-105638095D01*
X97485714Y-105971428D02*
X97485714Y-106352380D01*
X97152380Y-106114285D02*
X98009523Y-106114285D01*
X98104761Y-106161904D01*
X98152380Y-106257142D01*
X98152380Y-106352380D01*
X98152380Y-107447619D02*
X97485714Y-107447619D01*
X97580952Y-107447619D02*
X97533333Y-107495238D01*
X97485714Y-107590476D01*
X97485714Y-107733333D01*
X97533333Y-107828571D01*
X97628571Y-107876190D01*
X98152380Y-107876190D01*
X97628571Y-107876190D02*
X97533333Y-107923809D01*
X97485714Y-108019047D01*
X97485714Y-108161904D01*
X97533333Y-108257142D01*
X97628571Y-108304761D01*
X98152380Y-108304761D01*
X97485714Y-108685714D02*
X98152380Y-108923809D01*
X97485714Y-109161904D02*
X98152380Y-108923809D01*
X98390476Y-108828571D01*
X98438095Y-108780952D01*
X98485714Y-108685714D01*
X98152380Y-110304761D02*
X97485714Y-110304761D01*
X97580952Y-110304761D02*
X97533333Y-110352380D01*
X97485714Y-110447619D01*
X97485714Y-110590476D01*
X97533333Y-110685714D01*
X97628571Y-110733333D01*
X98152380Y-110733333D01*
X97628571Y-110733333D02*
X97533333Y-110780952D01*
X97485714Y-110876190D01*
X97485714Y-111019047D01*
X97533333Y-111114285D01*
X97628571Y-111161904D01*
X98152380Y-111161904D01*
X98152380Y-111638095D02*
X97485714Y-111638095D01*
X97152380Y-111638095D02*
X97200000Y-111590476D01*
X97247619Y-111638095D01*
X97200000Y-111685714D01*
X97152380Y-111638095D01*
X97247619Y-111638095D01*
X97485714Y-112114285D02*
X98152380Y-112114285D01*
X97580952Y-112114285D02*
X97533333Y-112161904D01*
X97485714Y-112257142D01*
X97485714Y-112400000D01*
X97533333Y-112495238D01*
X97628571Y-112542857D01*
X98152380Y-112542857D01*
X98152380Y-113447619D02*
X97152380Y-113447619D01*
X98104761Y-113447619D02*
X98152380Y-113352380D01*
X98152380Y-113161904D01*
X98104761Y-113066666D01*
X98057142Y-113019047D01*
X97961904Y-112971428D01*
X97676190Y-112971428D01*
X97580952Y-113019047D01*
X97533333Y-113066666D01*
X97485714Y-113161904D01*
X97485714Y-113352380D01*
X97533333Y-113447619D01*
X98057142Y-113923809D02*
X98104761Y-113971428D01*
X98152380Y-113923809D01*
X98104761Y-113876190D01*
X98057142Y-113923809D01*
X98152380Y-113923809D01*
X98057142Y-114400000D02*
X98104761Y-114447619D01*
X98152380Y-114400000D01*
X98104761Y-114352380D01*
X98057142Y-114400000D01*
X98152380Y-114400000D01*
X98057142Y-114876190D02*
X98104761Y-114923809D01*
X98152380Y-114876190D01*
X98104761Y-114828571D01*
X98057142Y-114876190D01*
X98152380Y-114876190D01*
D12*
X115854428Y-135344714D02*
X115927000Y-135308428D01*
X115963285Y-135272142D01*
X115999571Y-135199571D01*
X115999571Y-134981857D01*
X115963285Y-134909285D01*
X115927000Y-134873000D01*
X115854428Y-134836714D01*
X115745571Y-134836714D01*
X115673000Y-134873000D01*
X115636714Y-134909285D01*
X115600428Y-134981857D01*
X115600428Y-135199571D01*
X115636714Y-135272142D01*
X115673000Y-135308428D01*
X115745571Y-135344714D01*
X115854428Y-135344714D01*
D11*
X97952380Y-120447619D02*
X96952380Y-120447619D01*
X97666666Y-120780952D01*
X96952380Y-121114285D01*
X97952380Y-121114285D01*
X96952380Y-121780952D02*
X96952380Y-121971428D01*
X97000000Y-122066666D01*
X97095238Y-122161904D01*
X97285714Y-122209523D01*
X97619047Y-122209523D01*
X97809523Y-122161904D01*
X97904761Y-122066666D01*
X97952380Y-121971428D01*
X97952380Y-121780952D01*
X97904761Y-121685714D01*
X97809523Y-121590476D01*
X97619047Y-121542857D01*
X97285714Y-121542857D01*
X97095238Y-121590476D01*
X97000000Y-121685714D01*
X96952380Y-121780952D01*
X97952380Y-122638095D02*
X96952380Y-122638095D01*
X97428571Y-122638095D02*
X97428571Y-123209523D01*
X97952380Y-123209523D02*
X96952380Y-123209523D01*
X97952380Y-124257142D02*
X97476190Y-123923809D01*
X97952380Y-123685714D02*
X96952380Y-123685714D01*
X96952380Y-124066666D01*
X97000000Y-124161904D01*
X97047619Y-124209523D01*
X97142857Y-124257142D01*
X97285714Y-124257142D01*
X97380952Y-124209523D01*
X97428571Y-124161904D01*
X97476190Y-124066666D01*
X97476190Y-123685714D01*
X97380952Y-125590476D02*
X97333333Y-125495238D01*
X97285714Y-125447619D01*
X97190476Y-125400000D01*
X97142857Y-125400000D01*
X97047619Y-125447619D01*
X97000000Y-125495238D01*
X96952380Y-125590476D01*
X96952380Y-125780952D01*
X97000000Y-125876190D01*
X97047619Y-125923809D01*
X97142857Y-125971428D01*
X97190476Y-125971428D01*
X97285714Y-125923809D01*
X97333333Y-125876190D01*
X97380952Y-125780952D01*
X97380952Y-125590476D01*
X97428571Y-125495238D01*
X97476190Y-125447619D01*
X97571428Y-125400000D01*
X97761904Y-125400000D01*
X97857142Y-125447619D01*
X97904761Y-125495238D01*
X97952380Y-125590476D01*
X97952380Y-125780952D01*
X97904761Y-125876190D01*
X97857142Y-125923809D01*
X97761904Y-125971428D01*
X97571428Y-125971428D01*
X97476190Y-125923809D01*
X97428571Y-125876190D01*
X97380952Y-125780952D01*
X96952380Y-126590476D02*
X96952380Y-126685714D01*
X97000000Y-126780952D01*
X97047619Y-126828571D01*
X97142857Y-126876190D01*
X97333333Y-126923809D01*
X97571428Y-126923809D01*
X97761904Y-126876190D01*
X97857142Y-126828571D01*
X97904761Y-126780952D01*
X97952380Y-126685714D01*
X97952380Y-126590476D01*
X97904761Y-126495238D01*
X97857142Y-126447619D01*
X97761904Y-126400000D01*
X97571428Y-126352380D01*
X97333333Y-126352380D01*
X97142857Y-126400000D01*
X97047619Y-126447619D01*
X97000000Y-126495238D01*
X96952380Y-126590476D01*
X97857142Y-127923809D02*
X97904761Y-127876190D01*
X97952380Y-127733333D01*
X97952380Y-127638095D01*
X97904761Y-127495238D01*
X97809523Y-127400000D01*
X97714285Y-127352380D01*
X97523809Y-127304761D01*
X97380952Y-127304761D01*
X97190476Y-127352380D01*
X97095238Y-127400000D01*
X97000000Y-127495238D01*
X96952380Y-127638095D01*
X96952380Y-127733333D01*
X97000000Y-127876190D01*
X97047619Y-127923809D01*
X96952380Y-128828571D02*
X96952380Y-128352380D01*
X97428571Y-128304761D01*
X97380952Y-128352380D01*
X97333333Y-128447619D01*
X97333333Y-128685714D01*
X97380952Y-128780952D01*
X97428571Y-128828571D01*
X97523809Y-128876190D01*
X97761904Y-128876190D01*
X97857142Y-128828571D01*
X97904761Y-128780952D01*
X97952380Y-128685714D01*
X97952380Y-128447619D01*
X97904761Y-128352380D01*
X97857142Y-128304761D01*
X97952380Y-129828571D02*
X97952380Y-129257142D01*
X97952380Y-129542857D02*
X96952380Y-129542857D01*
X97095238Y-129447619D01*
X97190476Y-129352380D01*
X97238095Y-129257142D01*
X97571428Y-131019047D02*
X97571428Y-131780952D01*
X97047619Y-132971428D02*
X97000000Y-133019047D01*
X96952380Y-133114285D01*
X96952380Y-133352380D01*
X97000000Y-133447619D01*
X97047619Y-133495238D01*
X97142857Y-133542857D01*
X97238095Y-133542857D01*
X97380952Y-133495238D01*
X97952380Y-132923809D01*
X97952380Y-133542857D01*
X96952380Y-134161904D02*
X96952380Y-134257142D01*
X97000000Y-134352380D01*
X97047619Y-134400000D01*
X97142857Y-134447619D01*
X97333333Y-134495238D01*
X97571428Y-134495238D01*
X97761904Y-134447619D01*
X97857142Y-134400000D01*
X97904761Y-134352380D01*
X97952380Y-134257142D01*
X97952380Y-134161904D01*
X97904761Y-134066666D01*
X97857142Y-134019047D01*
X97761904Y-133971428D01*
X97571428Y-133923809D01*
X97333333Y-133923809D01*
X97142857Y-133971428D01*
X97047619Y-134019047D01*
X97000000Y-134066666D01*
X96952380Y-134161904D01*
X97047619Y-134876190D02*
X97000000Y-134923809D01*
X96952380Y-135019047D01*
X96952380Y-135257142D01*
X97000000Y-135352380D01*
X97047619Y-135400000D01*
X97142857Y-135447619D01*
X97238095Y-135447619D01*
X97380952Y-135400000D01*
X97952380Y-134828571D01*
X97952380Y-135447619D01*
X97285714Y-136304761D02*
X97952380Y-136304761D01*
X96904761Y-136066666D02*
X97619047Y-135828571D01*
X97619047Y-136447619D01*
X116416200Y-81178495D02*
X116368580Y-81083257D01*
X116368580Y-80940400D01*
X116416200Y-80797542D01*
X116511438Y-80702304D01*
X116606676Y-80654685D01*
X116797152Y-80607066D01*
X116940009Y-80607066D01*
X117130485Y-80654685D01*
X117225723Y-80702304D01*
X117320961Y-80797542D01*
X117368580Y-80940400D01*
X117368580Y-81035638D01*
X117320961Y-81178495D01*
X117273342Y-81226114D01*
X116940009Y-81226114D01*
X116940009Y-81035638D01*
X117368580Y-81654685D02*
X116368580Y-81654685D01*
X117368580Y-82226114D01*
X116368580Y-82226114D01*
X117368580Y-82702304D02*
X116368580Y-82702304D01*
X116368580Y-82940400D01*
X116416200Y-83083257D01*
X116511438Y-83178495D01*
X116606676Y-83226114D01*
X116797152Y-83273733D01*
X116940009Y-83273733D01*
X117130485Y-83226114D01*
X117225723Y-83178495D01*
X117320961Y-83083257D01*
X117368580Y-82940400D01*
X117368580Y-82702304D01*
X114044314Y-95504190D02*
X114044314Y-95266095D01*
X112615742Y-95266095D01*
X112615742Y-95504190D01*
X113425266Y-95837523D02*
X113425266Y-96313714D01*
X113710980Y-95742285D02*
X112710980Y-96075619D01*
X113710980Y-96408952D01*
X113710980Y-97266095D02*
X113710980Y-96694666D01*
X113710980Y-96980380D02*
X112710980Y-96980380D01*
X112853838Y-96885142D01*
X112949076Y-96789904D01*
X112996695Y-96694666D01*
X112710980Y-98170857D02*
X112710980Y-97694666D01*
X113187171Y-97647047D01*
X113139552Y-97694666D01*
X113091933Y-97789904D01*
X113091933Y-98028000D01*
X113139552Y-98123238D01*
X113187171Y-98170857D01*
X113282409Y-98218476D01*
X113520504Y-98218476D01*
X113615742Y-98170857D01*
X113663361Y-98123238D01*
X113710980Y-98028000D01*
X113710980Y-97789904D01*
X113663361Y-97694666D01*
X113615742Y-97647047D01*
X114044314Y-98551809D02*
X114044314Y-98789904D01*
X112615742Y-98789904D01*
X112615742Y-98551809D01*
X125296514Y-98171190D02*
X125296514Y-97933095D01*
X123867942Y-97933095D01*
X123867942Y-98171190D01*
X124677466Y-98504523D02*
X124677466Y-98980714D01*
X124963180Y-98409285D02*
X123963180Y-98742619D01*
X124963180Y-99075952D01*
X124963180Y-99933095D02*
X124963180Y-99361666D01*
X124963180Y-99647380D02*
X123963180Y-99647380D01*
X124106038Y-99552142D01*
X124201276Y-99456904D01*
X124248895Y-99361666D01*
X124296514Y-100790238D02*
X124963180Y-100790238D01*
X123915561Y-100552142D02*
X124629847Y-100314047D01*
X124629847Y-100933095D01*
X125296514Y-101218809D02*
X125296514Y-101456904D01*
X123867942Y-101456904D01*
X123867942Y-101218809D01*
X124810780Y-106304009D02*
X123810780Y-106304009D01*
X123810780Y-106684961D01*
X123858400Y-106780200D01*
X123906019Y-106827819D01*
X124001257Y-106875438D01*
X124144114Y-106875438D01*
X124239352Y-106827819D01*
X124286971Y-106780200D01*
X124334590Y-106684961D01*
X124334590Y-106304009D01*
X124810780Y-107304009D02*
X123810780Y-107304009D01*
X124810780Y-107780200D02*
X123810780Y-107780200D01*
X124810780Y-108351628D01*
X123810780Y-108351628D01*
X123906019Y-108780200D02*
X123858400Y-108827819D01*
X123810780Y-108923057D01*
X123810780Y-109161152D01*
X123858400Y-109256390D01*
X123906019Y-109304009D01*
X124001257Y-109351628D01*
X124096495Y-109351628D01*
X124239352Y-109304009D01*
X124810780Y-108732580D01*
X124810780Y-109351628D01*
X123810780Y-109684961D02*
X123810780Y-110351628D01*
X124810780Y-109923057D01*
X122569314Y-102384409D02*
X122855028Y-103146314D01*
X123140742Y-102384409D01*
X123569314Y-103860600D02*
X122140742Y-103860600D01*
X122569314Y-105336790D02*
X122855028Y-104574885D01*
X123140742Y-105336790D01*
X113888780Y-103630600D02*
X112888780Y-103630600D01*
X112888780Y-104011552D01*
X112936400Y-104106790D01*
X112984019Y-104154409D01*
X113079257Y-104202028D01*
X113222114Y-104202028D01*
X113317352Y-104154409D01*
X113364971Y-104106790D01*
X113412590Y-104011552D01*
X113412590Y-103630600D01*
X113888780Y-104630600D02*
X112888780Y-104630600D01*
X113888780Y-105106790D02*
X112888780Y-105106790D01*
X113888780Y-105678219D01*
X112888780Y-105678219D01*
X113888780Y-106678219D02*
X113888780Y-106106790D01*
X113888780Y-106392504D02*
X112888780Y-106392504D01*
X113031638Y-106297266D01*
X113126876Y-106202028D01*
X113174495Y-106106790D01*
X114517514Y-99692009D02*
X114803228Y-100453914D01*
X115088942Y-99692009D01*
X115517514Y-101168200D02*
X114088942Y-101168200D01*
X114517514Y-102644390D02*
X114803228Y-101882485D01*
X115088942Y-102644390D01*
X117071590Y-85917114D02*
X116309685Y-86202828D01*
X117071590Y-86488542D01*
X115595400Y-86917114D02*
X115595400Y-85488542D01*
X114119209Y-85917114D02*
X114881114Y-86202828D01*
X114119209Y-86488542D01*
X101274476Y-63057114D02*
X101274476Y-63723780D01*
X101512571Y-62676161D02*
X101750666Y-63390447D01*
X101131619Y-63390447D01*
X100750666Y-63723780D02*
X100750666Y-62723780D01*
X100655428Y-63342828D02*
X100369714Y-63723780D01*
X100369714Y-63057114D02*
X100750666Y-63438066D01*
X100036380Y-62723780D02*
X99369714Y-62723780D01*
X99798285Y-63723780D01*
X101376076Y-65698714D02*
X101376076Y-66365380D01*
X101614171Y-65317761D02*
X101852266Y-66032047D01*
X101233219Y-66032047D01*
X100852266Y-66365380D02*
X100852266Y-65365380D01*
X100757028Y-65984428D02*
X100471314Y-66365380D01*
X100471314Y-65698714D02*
X100852266Y-66079666D01*
X100137980Y-65365380D02*
X99471314Y-65365380D01*
X99899885Y-66365380D01*
X115073038Y-70784980D02*
X115644466Y-70784980D01*
X115358752Y-70784980D02*
X115358752Y-69784980D01*
X115453990Y-69927838D01*
X115549228Y-70023076D01*
X115644466Y-70070695D01*
X114453990Y-69784980D02*
X114358752Y-69784980D01*
X114263514Y-69832600D01*
X114215895Y-69880219D01*
X114168276Y-69975457D01*
X114120657Y-70165933D01*
X114120657Y-70404028D01*
X114168276Y-70594504D01*
X114215895Y-70689742D01*
X114263514Y-70737361D01*
X114358752Y-70784980D01*
X114453990Y-70784980D01*
X114549228Y-70737361D01*
X114596847Y-70689742D01*
X114644466Y-70594504D01*
X114692085Y-70404028D01*
X114692085Y-70165933D01*
X114644466Y-69975457D01*
X114596847Y-69880219D01*
X114549228Y-69832600D01*
X114453990Y-69784980D01*
X113692085Y-70784980D02*
X113692085Y-69784980D01*
X113596847Y-70404028D02*
X113311133Y-70784980D01*
X113311133Y-70118314D02*
X113692085Y-70499266D01*
X114495247Y-65501780D02*
X115066676Y-65501780D01*
X114780961Y-65501780D02*
X114780961Y-64501780D01*
X114876200Y-64644638D01*
X114971438Y-64739876D01*
X115066676Y-64787495D01*
X114066676Y-65501780D02*
X114066676Y-64501780D01*
X113971438Y-65120828D02*
X113685723Y-65501780D01*
X113685723Y-64835114D02*
X114066676Y-65216066D01*
X99334676Y-137542542D02*
X99382295Y-137590161D01*
X99525152Y-137637780D01*
X99620390Y-137637780D01*
X99763247Y-137590161D01*
X99858485Y-137494923D01*
X99906104Y-137399685D01*
X99953723Y-137209209D01*
X99953723Y-137066352D01*
X99906104Y-136875876D01*
X99858485Y-136780638D01*
X99763247Y-136685400D01*
X99620390Y-136637780D01*
X99525152Y-136637780D01*
X99382295Y-136685400D01*
X99334676Y-136733019D01*
X108783476Y-137110742D02*
X108831095Y-137158361D01*
X108973952Y-137205980D01*
X109069190Y-137205980D01*
X109212047Y-137158361D01*
X109307285Y-137063123D01*
X109354904Y-136967885D01*
X109402523Y-136777409D01*
X109402523Y-136634552D01*
X109354904Y-136444076D01*
X109307285Y-136348838D01*
X109212047Y-136253600D01*
X109069190Y-136205980D01*
X108973952Y-136205980D01*
X108831095Y-136253600D01*
X108783476Y-136301219D01*
X118349780Y-125820895D02*
X118349780Y-126487561D01*
X119349780Y-126058990D01*
X118683114Y-127297085D02*
X119349780Y-127297085D01*
X118302161Y-127058990D02*
X119016447Y-126820895D01*
X119016447Y-127439942D01*
X119349780Y-127820895D02*
X118349780Y-127820895D01*
X118825971Y-127820895D02*
X118825971Y-128392323D01*
X119349780Y-128392323D02*
X118349780Y-128392323D01*
X119254542Y-129439942D02*
X119302161Y-129392323D01*
X119349780Y-129249466D01*
X119349780Y-129154228D01*
X119302161Y-129011371D01*
X119206923Y-128916133D01*
X119111685Y-128868514D01*
X118921209Y-128820895D01*
X118778352Y-128820895D01*
X118587876Y-128868514D01*
X118492638Y-128916133D01*
X118397400Y-129011371D01*
X118349780Y-129154228D01*
X118349780Y-129249466D01*
X118397400Y-129392323D01*
X118445019Y-129439942D01*
X118349780Y-129773276D02*
X118349780Y-130392323D01*
X118730733Y-130058990D01*
X118730733Y-130201847D01*
X118778352Y-130297085D01*
X118825971Y-130344704D01*
X118921209Y-130392323D01*
X119159304Y-130392323D01*
X119254542Y-130344704D01*
X119302161Y-130297085D01*
X119349780Y-130201847D01*
X119349780Y-129916133D01*
X119302161Y-129820895D01*
X119254542Y-129773276D01*
X118349780Y-130725657D02*
X118349780Y-131392323D01*
X119349780Y-130963752D01*
X118349780Y-131678038D02*
X118349780Y-132297085D01*
X118730733Y-131963752D01*
X118730733Y-132106609D01*
X118778352Y-132201847D01*
X118825971Y-132249466D01*
X118921209Y-132297085D01*
X119159304Y-132297085D01*
X119254542Y-132249466D01*
X119302161Y-132201847D01*
X119349780Y-132106609D01*
X119349780Y-131820895D01*
X119302161Y-131725657D01*
X119254542Y-131678038D01*
X105357466Y-112907819D02*
X105309847Y-112860200D01*
X105214609Y-112812580D01*
X104976514Y-112812580D01*
X104881276Y-112860200D01*
X104833657Y-112907819D01*
X104786038Y-113003057D01*
X104786038Y-113098295D01*
X104833657Y-113241152D01*
X105405085Y-113812580D01*
X104786038Y-113812580D01*
X104357466Y-113812580D02*
X104357466Y-112812580D01*
X104262228Y-113431628D02*
X103976514Y-113812580D01*
X103976514Y-113145914D02*
X104357466Y-113526866D01*
X103595561Y-112907819D02*
X103547942Y-112860200D01*
X103452704Y-112812580D01*
X103214609Y-112812580D01*
X103119371Y-112860200D01*
X103071752Y-112907819D01*
X103024133Y-113003057D01*
X103024133Y-113098295D01*
X103071752Y-113241152D01*
X103643180Y-113812580D01*
X103024133Y-113812580D01*
X100988666Y-112984019D02*
X100941047Y-112936400D01*
X100845809Y-112888780D01*
X100607714Y-112888780D01*
X100512476Y-112936400D01*
X100464857Y-112984019D01*
X100417238Y-113079257D01*
X100417238Y-113174495D01*
X100464857Y-113317352D01*
X101036285Y-113888780D01*
X100417238Y-113888780D01*
X99988666Y-113888780D02*
X99988666Y-112888780D01*
X99893428Y-113507828D02*
X99607714Y-113888780D01*
X99607714Y-113222114D02*
X99988666Y-113603066D01*
X99226761Y-112984019D02*
X99179142Y-112936400D01*
X99083904Y-112888780D01*
X98845809Y-112888780D01*
X98750571Y-112936400D01*
X98702952Y-112984019D01*
X98655333Y-113079257D01*
X98655333Y-113174495D01*
X98702952Y-113317352D01*
X99274380Y-113888780D01*
X98655333Y-113888780D01*
X123785238Y-69235580D02*
X124356666Y-69235580D01*
X124070952Y-69235580D02*
X124070952Y-68235580D01*
X124166190Y-68378438D01*
X124261428Y-68473676D01*
X124356666Y-68521295D01*
X122928095Y-68568914D02*
X122928095Y-69235580D01*
X123356666Y-68568914D02*
X123356666Y-69092723D01*
X123309047Y-69187961D01*
X123213809Y-69235580D01*
X123070952Y-69235580D01*
X122975714Y-69187961D01*
X122928095Y-69140342D01*
X122118571Y-68711771D02*
X122451904Y-68711771D01*
X122451904Y-69235580D02*
X122451904Y-68235580D01*
X121975714Y-68235580D01*
X101306238Y-71242180D02*
X101877666Y-71242180D01*
X101591952Y-71242180D02*
X101591952Y-70242180D01*
X101687190Y-70385038D01*
X101782428Y-70480276D01*
X101877666Y-70527895D01*
X100687190Y-70242180D02*
X100591952Y-70242180D01*
X100496714Y-70289800D01*
X100449095Y-70337419D01*
X100401476Y-70432657D01*
X100353857Y-70623133D01*
X100353857Y-70861228D01*
X100401476Y-71051704D01*
X100449095Y-71146942D01*
X100496714Y-71194561D01*
X100591952Y-71242180D01*
X100687190Y-71242180D01*
X100782428Y-71194561D01*
X100830047Y-71146942D01*
X100877666Y-71051704D01*
X100925285Y-70861228D01*
X100925285Y-70623133D01*
X100877666Y-70432657D01*
X100830047Y-70337419D01*
X100782428Y-70289800D01*
X100687190Y-70242180D01*
X99925285Y-71242180D02*
X99925285Y-70242180D01*
X99830047Y-70861228D02*
X99544333Y-71242180D01*
X99544333Y-70575514D02*
X99925285Y-70956466D01*
X101306238Y-68727580D02*
X101877666Y-68727580D01*
X101591952Y-68727580D02*
X101591952Y-67727580D01*
X101687190Y-67870438D01*
X101782428Y-67965676D01*
X101877666Y-68013295D01*
X100687190Y-67727580D02*
X100591952Y-67727580D01*
X100496714Y-67775200D01*
X100449095Y-67822819D01*
X100401476Y-67918057D01*
X100353857Y-68108533D01*
X100353857Y-68346628D01*
X100401476Y-68537104D01*
X100449095Y-68632342D01*
X100496714Y-68679961D01*
X100591952Y-68727580D01*
X100687190Y-68727580D01*
X100782428Y-68679961D01*
X100830047Y-68632342D01*
X100877666Y-68537104D01*
X100925285Y-68346628D01*
X100925285Y-68108533D01*
X100877666Y-67918057D01*
X100830047Y-67822819D01*
X100782428Y-67775200D01*
X100687190Y-67727580D01*
X99925285Y-68727580D02*
X99925285Y-67727580D01*
X99830047Y-68346628D02*
X99544333Y-68727580D01*
X99544333Y-68060914D02*
X99925285Y-68441866D01*
X103190476Y-68457142D02*
X103238095Y-68504761D01*
X103380952Y-68552380D01*
X103476190Y-68552380D01*
X103619047Y-68504761D01*
X103714285Y-68409523D01*
X103761904Y-68314285D01*
X103809523Y-68123809D01*
X103809523Y-67980952D01*
X103761904Y-67790476D01*
X103714285Y-67695238D01*
X103619047Y-67600000D01*
X103476190Y-67552380D01*
X103380952Y-67552380D01*
X103238095Y-67600000D01*
X103190476Y-67647619D01*
X120238876Y-84939142D02*
X120286495Y-84986761D01*
X120429352Y-85034380D01*
X120524590Y-85034380D01*
X120667447Y-84986761D01*
X120762685Y-84891523D01*
X120810304Y-84796285D01*
X120857923Y-84605809D01*
X120857923Y-84462952D01*
X120810304Y-84272476D01*
X120762685Y-84177238D01*
X120667447Y-84082000D01*
X120524590Y-84034380D01*
X120429352Y-84034380D01*
X120286495Y-84082000D01*
X120238876Y-84129619D01*
X113857161Y-81411819D02*
X115142876Y-80554676D01*
X114380971Y-81745152D02*
X114380971Y-82078485D01*
X114904780Y-82221342D02*
X114904780Y-81745152D01*
X113904780Y-81745152D01*
X113904780Y-82221342D01*
X114619066Y-82602295D02*
X114619066Y-83078485D01*
X114904780Y-82507057D02*
X113904780Y-82840390D01*
X114904780Y-83173723D01*
D13*
%TO.C,C8*%
X102590000Y-67397936D02*
X102590000Y-68602064D01*
X104410000Y-67397936D02*
X104410000Y-68602064D01*
%TO.C,R9*%
X97670252Y-70156000D02*
X97147748Y-70156000D01*
X97670252Y-71576000D02*
X97147748Y-71576000D01*
%TO.C,R8*%
X97679252Y-67616000D02*
X97156748Y-67616000D01*
X97679252Y-69036000D02*
X97156748Y-69036000D01*
%TO.C,R7*%
X97534252Y-65203000D02*
X97011748Y-65203000D01*
X97534252Y-66623000D02*
X97011748Y-66623000D01*
%TO.C,R1*%
X97486252Y-62540000D02*
X96963748Y-62540000D01*
X97486252Y-63960000D02*
X96963748Y-63960000D01*
%TO.C,R6*%
X104646252Y-114148800D02*
X104123748Y-114148800D01*
X104646252Y-115568800D02*
X104123748Y-115568800D01*
%TO.C,R4*%
X100201252Y-114148800D02*
X99678748Y-114148800D01*
X100201252Y-115568800D02*
X99678748Y-115568800D01*
%TO.C,R3*%
X114679252Y-67235000D02*
X114156748Y-67235000D01*
X114679252Y-68655000D02*
X114156748Y-68655000D01*
%TO.C,R2*%
X114697252Y-62790000D02*
X114174748Y-62790000D01*
X114697252Y-64210000D02*
X114174748Y-64210000D01*
%TO.C,C7*%
X98708800Y-136492836D02*
X98708800Y-137696964D01*
X100528800Y-136492836D02*
X100528800Y-137696964D01*
%TO.C,C6*%
X108056000Y-136086436D02*
X108056000Y-137290564D01*
X109876000Y-136086436D02*
X109876000Y-137290564D01*
%TO.C,C5*%
X121136164Y-83697400D02*
X119932036Y-83697400D01*
X121136164Y-85517400D02*
X119932036Y-85517400D01*
D11*
%TO.C,U4*%
X115023400Y-135534800D02*
X113223400Y-135534800D01*
X115023400Y-122634800D02*
X122773400Y-122634800D01*
X115023400Y-135784800D02*
X122773400Y-135784800D01*
X115023400Y-122634800D02*
X115023400Y-122969800D01*
X122773400Y-122634800D02*
X122773400Y-122969800D01*
X122773400Y-135784800D02*
X122773400Y-135449800D01*
X115023400Y-135784800D02*
X115023400Y-135534800D01*
D13*
%TO.C,C3*%
X124160000Y-65160436D02*
X124160000Y-66364564D01*
X122340000Y-65160436D02*
X122340000Y-66364564D01*
%TD*%
M02*
